<svg width="0" height="0" version="1.1" xmlns="http://www.w3.org/2000/svg" xml:space="preserve" xmlns:xlink="http://www.w3.org/1999/xlink">
    <defs>
        <symbol id="icon-event_seat" viewBox="0 0 24 24">
            <path d="M17.016 12.984h-10.031v-7.969c0-1.078 0.938-2.016 2.016-2.016h6c1.078 0 2.016 0.938 2.016 2.016v7.969zM2.016 9.984h3v3h-3v-3zM18.984 9.984h3v3h-3v-3zM3.984 21v-6h16.031v6h-3v-3h-10.031v3h-3z"></path>
        </symbol>
        <symbol id="icon-phone20" viewBox="0 0 24 24">
            <path d="M6.609 10.781c1.453 2.813 3.797 5.156 6.609 6.609l2.203-2.203c0.281-0.281 0.703-0.375 1.031-0.234 1.125 0.375 2.344 0.563 3.563 0.563 0.563 0 0.984 0.422 0.984 0.984v3.516c0 0.563-0.422 0.984-0.984 0.984-9.375 0-17.016-7.641-17.016-17.016 0-0.563 0.422-0.984 0.984-0.984h3.516c0.563 0 0.984 0.422 0.984 0.984 0 1.266 0.188 2.438 0.563 3.563 0.094 0.328 0.047 0.75-0.234 1.031z"></path>
        </symbol>
        <symbol id="icon-weekend" viewBox="0 0 24 24">
            <path d="M18 5.016c1.078 0 2.016 0.891 2.016 1.969v2.156c-1.172 0.422-2.016 1.5-2.016 2.813v2.063h-12v-2.063c0-1.313-0.844-2.391-2.016-2.813v-2.156c0-1.078 0.938-1.969 2.016-1.969h12zM21 9.984c1.078 0 2.016 0.938 2.016 2.016v5.016c0 1.078-0.938 1.969-2.016 1.969h-18c-1.078 0-2.016-0.891-2.016-1.969v-5.016c0-1.078 0.938-2.016 2.016-2.016s2.016 0.938 2.016 2.016v3h13.969v-3c0-1.078 0.938-2.016 2.016-2.016z"></path>
        </symbol>

        <symbol id="icon-layout-short-corner-ottoman" viewBox="0 0 200 120" style="enable-background:new 0 0 200 120;"><style type="text/css">.st0{fill:none;stroke:#FFF;stroke-width:2}.st1{fill:#FFF}</style><g id="short-corner-ottoman" transform="translate(23428 15244)"> <g id="Rectangle_8" transform="translate(-23293.131 -15202.172) rotate(180)"> <rect x="-32.5" y="-23.1" width="44.9" height="41.8"/> <rect x="-31.5" y="-22.1" class="st0" width="42.9" height="39.8"/> </g> <g id="Rectangle_9" transform="translate(-23338.131 -15202.172) rotate(180)"> <rect x="-32.5" y="-23.1" width="44.9" height="41.8"/> <rect x="-31.5" y="-22.1" class="st0" width="42.9" height="39.8"/> </g> <g id="Rectangle_35" transform="translate(-23383.131 -15202.172) rotate(180)"> <rect x="-32.5" y="-23.1" width="44.9" height="41.8"/> <rect x="-31.5" y="-22.1" class="st0" width="42.9" height="39.8"/> </g> <g id="Rectangle_36" transform="translate(-23298.131 -15170.172) rotate(180)"> <rect x="-32.5" y="-23.1" width="39.9" height="31.8"/> <rect x="-31.5" y="-22.1" class="st0" width="37.9" height="29.8"/> </g> <g id="Union_9" transform="translate(-23338 -15244)"> <path d="M76.5,64.1h-6v-33v-1h-1h-36v-6h43V64.1z"/> <path class="st1" d="M75.5,63.1v-38h-41v4h35h2v2v32H75.5 M77.5,65.1h-8v-34h-37v-8h45V65.1z"/> </g> <g id="Rectangle_111" transform="translate(-23338 -15244) rotate(90)"> <rect x="4.6" y="-14" transform="matrix(2.535182e-06 1 -1 2.535182e-06 17.0859 -37.086)" width="45" height="8"/> <rect x="5.6" y="-13" transform="matrix(2.535182e-06 1 -1 2.535182e-06 17.0859 -37.086)" class="st0" width="43" height="6"/> </g> <g id="Union_10" transform="translate(-23428 -15244)"> <path d="M39.5,64.1h-6v-40h7h36v6h-36h-1v1V64.1z"/> <path class="st1" d="M38.5,63.1v-32v-2h2h35v-4h-35h-6v38H38.5 M40.5,65.1h-8v-42h8h37v8h-37V65.1z"/> </g> <path id="Union_11" class="st1" d="M32.5,23.1"/> </g> </symbol>

        <symbol id="icon-layout-armless-sofa" viewBox="0 0 200 120" style="enable-background:new 0 0 200 120;"><style type="text/css">.st0{fill:none;stroke:#FFF;stroke-width:2}.st1{fill:#FFF}</style><g id="armless_sofa" transform="translate(23432 15417)"> <g id="Rectangle_8" transform="translate(-23297.131 -15375.172) rotate(180)"> <rect x="-32.5" y="-39.1" width="44.9" height="41.8"/> <rect x="-31.5" y="-38.1" class="st0" width="42.9" height="39.8"/> </g> <g id="Rectangle_9" transform="translate(-23342.131 -15375.172) rotate(180)"> <rect x="-32.5" y="-39.1" width="44.9" height="41.8"/> <rect x="-31.5" y="-38.1" class="st0" width="42.9" height="39.8"/> </g> <g id="Rectangle_35" transform="translate(-23387.131 -15375.172) rotate(180)"> <rect x="-32.5" y="-39.1" width="44.9" height="41.8"/> <rect x="-31.5" y="-38.1" class="st0" width="42.9" height="39.8"/> </g> <g id="Union_12" transform="translate(-23432 -15417)"> <path d="M76.5,46.1h-43v-6h43V46.1z"/> <path class="st1" d="M34.5,41.1v4h41v-4H34.5 M32.5,39.1h45v8h-45V39.1z"/> </g> <g id="Rectangle_121" transform="translate(-23342 -15417) rotate(90)"> <rect x="20.6" y="-14" transform="matrix(2.535182e-06 1 -1 2.535182e-06 33.0859 -53.086)" width="45" height="8"/> <rect x="21.6" y="-13" transform="matrix(2.535182e-06 1 -1 2.535182e-06 33.0859 -53.086)" class="st0" width="43" height="6"/> </g> <g id="Union_14" transform="translate(-23342 -15417)"> <path d="M76.5,46.1h-43v-6h43V46.1z"/> <path class="st1" d="M34.5,41.1v4h41v-4H34.5 M32.5,39.1h45v8h-45V39.1z"/> </g> </g> </symbol>
        
        <symbol viewBox="0 0 134 126" id="icon-layout-modular-sofa"> 
            <g id="modular_sofa" transform="translate(23432.001 15417)"> <g id="Rectangle_8" transform="translate(-23297.131 -15375.172) rotate(180)"> <rect x="0" y="-37" width="44.9" height="41.8"/> <rect x="1" y="-36" fill="none" stroke="#FFFFFF" stroke-width="2" width="42.9" height="39.8"/> </g> <g id="Rectangle_9" transform="translate(-23342.131 -15375.172) rotate(180)"> <rect x="0" y="-37" width="44.9" height="41.8"/> <rect x="1" y="-36" fill="none" stroke="#FFFFFF" stroke-width="2" width="42.9" height="39.8"/> </g> <g id="Rectangle_35" transform="translate(-23387.131 -15375.172) rotate(180)"> <rect x="0" y="-37" width="44.9" height="41.8"/> <rect x="1" y="-36" fill="none" stroke="#FFFFFF" stroke-width="2" width="42.9" height="39.8"/> </g> <g id="Union_12" transform="translate(-23432 -15417)"> <path d="M7,78H1V38h7h36v6H8H7v1V78z"/> <path fill="#FFFFFF" d="M6,77V45v-2h2h35v-4H8H2v38H6 M8,79H0V37h8h37v8H8V79z"/> </g> <g id="Rectangle_121" transform="translate(-23342 -15417) rotate(90)"> <rect x="18.5" y="18.5" transform="matrix(2.535182e-06 1 -1 2.535182e-06 63.501 -18.499)" width="45" height="8"/> <rect x="19.5" y="19.5" transform="matrix(2.535182e-06 1 -1 2.535182e-06 63.501 -18.499)" fill="none" stroke="#FFFFFF" stroke-width="2" width="43" height="6"/> </g> <g id="Union_14" transform="translate(-23342 -15417)"> <path d="M44,78h-6V45v-1h-1H1v-6h43V78z"/> <path fill="#FFFFFF" d="M43,77V39H2v4h35h2v2v32H43 M45,79h-8V45H0v-8h45V79z"/> </g> </g>        
        </symbol>
        <symbol id="icon-layout-modular-loveseat" viewBox="0 0 134 123.2">
            <g transform="translate(23428 15244)"> <g transform="translate(-23338 -15202) rotate(180)"> <rect x="-22" y="-29" width="44.9" height="41.8" fill="none"/> <rect x="-21" y="-28" width="42.9" height="39.8" fill="none" stroke="#fff" stroke-width="2"/> </g> <g transform="translate(-23383 -15202) rotate(180)"> <path d="M21.9,11.8H-21V-28h42.9V11.8z"/> <path d="M-20-27v37.8h40.9V-27H-20 M-22-29h44.9v41.8H-22V-29z" fill="#fff"/> </g> <g transform="translate(-45)"> <g transform="translate(-23293 -15202) rotate(180)"> <rect x="-22" y="-29" width="44.9" height="41.8"/> <rect x="-21" y="-28" width="42.9" height="39.8" fill="none" stroke="#fff" stroke-width="2"/> </g> <g transform="translate(-23338 -15244)"> <path d="m66 70h-6v-34h-37v-6h43v40z"/> <path d="m65 69v-38h-41v4h37v34h4m2 2h-8v-34h-37v-8h45v42z" fill="#fff"/> </g> </g> <g transform="translate(-23338 -15244) rotate(90)"> <rect transform="matrix(2.5352e-6 1 -1 2.5352e-6 33.5 -32.5)" x="10.5" y="-3.5" width="45" height="8"/> <rect transform="matrix(2.5352e-6 1 -1 2.5352e-6 33.5 -32.5)" x="11.5" y="-2.5" width="43" height="6" fill="none" stroke="#fff" stroke-width="2"/> </g> <g transform="translate(-23428 -15244)"> <path d="m29 70h-6v-40h43v6h-37v34z"/> <path d="m28 69v-34h37v-4h-41v38h4m2 2h-8v-42h45v8h-37v34z" fill="#fff"/> </g> </g>
        </symbol>
        <symbol id="icon-layout-l-shaped" viewBox="0 0 134 126">
            <g data-name="Rectangle 8" stroke="#fff" stroke-width="2"><path stroke="none" d="M134.869 41.828h-44.87V0h44.87z"/><path fill="none" d="M133.869 40.828h-42.87V1h42.87z"/></g><g data-name="Rectangle 9" stroke="#fff" stroke-width="2"><path stroke="none" d="M89.869 41.828h-44.87V0h44.87z"/><path fill="none" d="M88.869 40.828h-42.87V1h42.87z"/></g><g data-name="Rectangle 35" stroke="#fff" stroke-width="2"><path stroke="none" d="M44.869 41.828H-.001V0h44.87z"/><path fill="none" d="M43.869 40.828H.999V1h42.87z"/></g><g data-name="Rectangle 36" stroke="#fff" stroke-width="2"><path stroke="none" d="M44.869 83.828H-.001V42h44.87z"/><path fill="none" d="M43.869 82.828H.999V43h42.87z"/></g><g data-name="Rectangle 37" stroke="#fff" stroke-width="2"><path stroke="none" d="M44.869 125.828H-.001V84h44.87z"/><path fill="none" d="M43.869 124.828H.999V85h42.87z"/></g><g data-name="Union 12" class="layout-dark-line"><path d="M7 41H1V1h43v6H7v34z"/><path d="M6 40V6h37V2H2v38h4m2 2H0V0h45v8H8v34z" fill="#fff"/></g><g data-name="Rectangle 118" class="layout-dark-line" stroke="#fff" stroke-width="2"><path stroke="none" d="M0 42h8v42H0z"/><path fill="none" d="M1 43h6v40H1z"/></g><g data-name="Union 13" class="layout-dark-line"><path d="M44 125H1V85h6v34h37v6z"/><path d="M43 124v-4H6V86H2v38h41m2 2H0V84h8v34h37v8z" fill="#fff"/></g><g data-name="Rectangle 121" class="layout-dark-line" stroke="#fff" stroke-width="2"><path stroke="none" d="M90 0v8H45V0z"/><path fill="none" d="M89 1v6H46V1z"/></g><g data-name="Union 14" class="layout-dark-line"><path d="M134 41h-6V7H91V1h43v40z"/><path d="M133 40V2H92v4h37v34h4m2 2h-8V8H90V0h45v42z" fill="#fff"/></g>
        </symbol>
        <symbol id="icon-layout-large-u" viewBox="0 0 184 126">
            <g data-name="Rectangle 8" stroke="#fff" stroke-width="2"><path stroke="none" d="M46 0h45v42H46z"/><path fill="none" d="M47 1h43v40H47z"/></g><g data-name="Rectangle 9" stroke="#fff" stroke-width="2"><path stroke="none" d="M91 0h45v42H91z"/><path fill="none" d="M92 1h43v40H92z"/></g><g data-name="Rectangle 35" stroke="#fff" stroke-width="2"><path stroke="none" d="M136 0h45v42h-45z"/><path fill="none" d="M137 1h43v40h-43z"/></g><g data-name="Rectangle 36" stroke="#fff" stroke-width="2"><path stroke="none" d="M136 42h45v42h-45z"/><path fill="none" d="M137 43h43v40h-43z"/></g><g data-name="Rectangle 37" stroke="#fff" stroke-width="2"><path stroke="none" d="M136 84h45v42h-45z"/><path fill="none" d="M137 85h43v40h-43z"/></g><g data-name="Rectangle 39" stroke="#fff" stroke-width="2"><path stroke="none" d="M0 0h45v42H0z"/><path fill="none" d="M1 1h43v40H1z"/></g><g data-name="Rectangle 40" stroke="#fff" stroke-width="2"><path stroke="none" d="M0 42h45v42H0z"/><path fill="none" d="M1 43h43v40H1z"/></g><g data-name="Rectangle 41" stroke="#fff" stroke-width="2"><path stroke="none" d="M0 84h45v42H0z"/><path fill="none" d="M1 85h43v40H1z"/></g><g data-name="Union 1" class="layout-dark-line"><path d="M7 41H1V1h43v6H7v34z"/><path d="M6 40V6h37V2H2v38h4m2 2H0V0h45v8H8v34z" fill="#fff"/></g><g data-name="Rectangle 89" class="layout-dark-line" stroke="#fff" stroke-width="2"><path stroke="none" d="M0 42h8v42H0z"/><path fill="none" d="M1 43h6v40H1z"/></g><g data-name="Union 2" class="layout-dark-line"><path d="M44 125H1V85h6v34h37v6z"/><path d="M43 124v-4H6V86H2v38h41m2 2H0V84h8v34h37v8z" fill="#fff"/></g><g data-name="Rectangle 92" class="layout-dark-line" stroke="#fff" stroke-width="2"><path stroke="none" d="M91 0v8H46V0z"/><path fill="none" d="M90 1v6H47V1z"/></g><g data-name="Rectangle 93" class="layout-dark-line" stroke="#fff" stroke-width="2"><path stroke="none" d="M136 0v8H91V0z"/><path fill="none" d="M135 1v6H92V1z"/></g><g data-name="Union 3" class="layout-dark-line"><path d="M180 41h-6V7h-37V1h43v40z"/><path d="M179 40V2h-41v4h37v34h4m2 2h-8V8h-37V0h45v42z" fill="#fff"/></g><g data-name="Rectangle 96" class="layout-dark-line" stroke="#fff" stroke-width="2"><path stroke="none" d="M173 42h8v42h-8z"/><path fill="none" d="M174 43h6v40h-6z"/></g><g data-name="Union 4" class="layout-dark-line"><path d="M180 125h-43v-6h37V85h6v40z"/><path d="M179 124V86h-4v34h-37v4h41m2 2h-45v-8h37V84h8v42z" fill="#fff"/></g><g data-name="Rectangle 101" class="layout-dark-line" stroke="#fff" stroke-width="2"><path stroke="none" d="M0 42h8v42H0z"/><path fill="none" d="M1 43h6v40H1z"/></g>
        </symbol>
        <symbol id="icon-layout-short-corner" viewBox="0 0 134 126">
            <g data-name="Rectangle 8" stroke="#fff" stroke-width="2"><path stroke="none" d="M134.869 41.828h-44.87V0h44.87z"/><path fill="none" d="M133.869 40.828h-42.87V1h42.87z"/></g><g data-name="Rectangle 9" stroke="#fff" stroke-width="2"><path stroke="none" d="M89.869 41.828h-44.87V0h44.87z"/><path fill="none" d="M88.869 40.828h-42.87V1h42.87z"/></g><g data-name="Rectangle 35" stroke="#fff" stroke-width="2"><path stroke="none" d="M44.869 41.828H-.001V0h44.87z"/><path fill="none" d="M43.869 40.828H.999V1h42.87z"/></g><g data-name="Rectangle 36" stroke="#fff" stroke-width="2"><path stroke="none" d="M134.869 83.828h-44.87V42h44.87z"/><path fill="none" d="M133.869 82.828h-42.87V43h42.87z"/></g><g data-name="Union 9" class="layout-dark-line"><path d="M134 41h-6V7H91V1h43v40z"/><path d="M133 40V2H92v4h37v34h4m2 2h-8V8H90V0h45v42z" fill="#fff"/></g><g data-name="Rectangle 111" class="layout-dark-line" stroke="#fff" stroke-width="2"><path stroke="none" d="M90 0v8H45V0z"/><path fill="none" d="M89 1v6H46V1z"/></g><g data-name="Union 10" class="layout-dark-line"><path d="M7 41H1V1h43v6H7v34z"/><path d="M6 40V6h37V2H2v38h4m2 2H0V0h45v8H8v34z" fill="#fff"/></g><g data-name="Union 11" class="layout-dark-line"><path d="M134 83H91v-6h37V43h6v40z"/><path d="M133 82V44h-4v34H92v4h41m2 2H90v-8h37V42h8v42z" fill="#fff"/></g>
        </symbol>
        <symbol id="icon-layout-small-u" viewBox="0 0 134 126">
            <g data-name="Rectangle 8" stroke="#fff" stroke-width="2"><path stroke="none" d="M134.869 41.828h-44.87V0h44.87z"/><path fill="none" d="M133.869 40.828h-42.87V1h42.87z"/></g><g data-name="Rectangle 9" stroke="#fff" stroke-width="2"><path stroke="none" d="M89.869 41.828h-44.87V0h44.87z"/><path fill="none" d="M88.869 40.828h-42.87V1h42.87z"/></g><g data-name="Rectangle 35" stroke="#fff" stroke-width="2"><path stroke="none" d="M44.869 41.828H-.001V0h44.87z"/><path fill="none" d="M43.869 40.828H.999V1h42.87z"/></g><g data-name="Rectangle 36" stroke="#fff" stroke-width="2"><path stroke="none" d="M134.869 83.828h-44.87V42h44.87z"/><path fill="none" d="M133.869 82.828h-42.87V43h42.87z"/></g><g data-name="Rectangle 86" stroke="#fff" stroke-width="2"><path stroke="none" d="M44.869 83.828H-.001V42h44.87z"/><path fill="none" d="M43.869 82.828H.999V43h42.87z"/></g><g data-name="Union 5" class="layout-dark-line"><path d="M7 41H1V1h43v6H7v34z"/><path d="M6 40V6h37V2H2v38h4m2 2H0V0h45v8H8v34z" fill="#fff"/></g><g data-name="Union 6" class="layout-dark-line"><path d="M44 83H1V43h6v34h37v6z"/><path d="M43 82v-4H6V44H2v38h41m2 2H0V42h8v34h37v8z" fill="#fff"/></g><g data-name="Rectangle 104" class="layout-dark-line" stroke="#fff" stroke-width="2"><path stroke="none" d="M90 0v8H45V0z"/><path fill="none" d="M89 1v6H46V1z"/></g><g data-name="Union 7" class="layout-dark-line"><path d="M134 41h-6V7H91V1h43v40z"/><path d="M133 40V2H92v4h37v34h4m2 2h-8V8H90V0h45v42z" fill="#fff"/></g><g data-name="Union 8" class="layout-dark-line"><path d="M134 83H91v-6h37V43h6v40z"/><path d="M133 82V44h-4v34H92v4h41m2 2H90v-8h37V42h8v42z" fill="#fff"/></g>
        </symbol>
        <symbol id="icon-lock1" viewBox="0 0 18 28">
            <path d="M5 12h8v-3c0-2.203-1.797-4-4-4s-4 1.797-4 4v3zM18 13.5v9c0 0.828-0.672 1.5-1.5 1.5h-15c-0.828 0-1.5-0.672-1.5-1.5v-9c0-0.828 0.672-1.5 1.5-1.5h0.5v-3c0-3.844 3.156-7 7-7s7 3.156 7 7v3h0.5c0.828 0 1.5 0.672 1.5 1.5z"></path>
        </symbol>
        <symbol id="icon-credit-cards" viewBox='0 0 210 20'>
            <defs><linearGradient id='a' x1='163.38' y1='10' x2='209.6' y2='10' gradientUnits='userSpaceOnUse'><stop offset='0' stop-color='#1f286f'/><stop offset='.48' stop-color='#004e94'/><stop offset='.83' stop-color='#0066b1'/><stop offset='1' stop-color='#006fbc'/></linearGradient><linearGradient id='b' x1='-113.66' y1='184.75' x2='-112.57' y2='184.75' gradientTransform='matrix(5.16 0 0 -12.74 785.8 2363.54)' gradientUnits='userSpaceOnUse'><stop offset='0' stop-color='#007940'/><stop offset='.23' stop-color='#00873f'/><stop offset='.74' stop-color='#40a737'/><stop offset='1' stop-color='#5cb531'/></linearGradient><linearGradient id='c' x1='-113.86' y1='184.76' x2='-112.75' y2='184.76' gradientTransform='matrix(5.16 0 0 -12.73 774.24 2361.49)' xlink:href='#a'/><linearGradient id='d' x1='-113.77' y1='184.74' x2='-112.69' y2='184.74' gradientTransform='matrix(5.16 0 0 -12.75 780.03 2365.58)' gradientUnits='userSpaceOnUse'><stop offset='0' stop-color='#6c2c2f'/><stop offset='.17' stop-color='#882730'/><stop offset='.57' stop-color='#be1833'/><stop offset='.86' stop-color='#dc0436'/><stop offset='1' stop-color='#e60039'/></linearGradient></defs><path fill='#fff' d='M0 0h30v20H0z'/><path fill='#00579f' d='M13.56 13.4h-1.75l1.09-6.78h1.75l-1.09 6.78zM19.91 6.79a4.25 4.25 0 00-1.57-.29c-1.73 0-2.95.92-3 2.24 0 1 .87 1.52 1.54 1.84s.91.55.91.84c0 .46-.55.67-1.06.67a3.5 3.5 0 01-1.64-.36l-.23-.11-.25 1.52a5.35 5.35 0 002 .36c1.84 0 3-.91 3.05-2.31 0-.78-.46-1.37-1.47-1.85-.62-.31-1-.52-1-.84s.32-.58 1-.58a3 3 0 011.3.26l.16.07.24-1.46zM22.24 11l.7-1.9.23-.65.12.59.4 2zm2.16-4.38h-1.35a.87.87 0 00-.92.57l-2.6 6.21h1.84s.3-.84.36-1H24l.21 1h1.62L24.4 6.62zM10.34 6.62l-1.71 4.62-.19-.93A5.18 5.18 0 006 7.47l1.57 5.92h1.87l2.76-6.77z'/><path d='M7 6.62H4.21v.14a5.87 5.87 0 014.25 3.55l-.63-3.12c-.1-.43-.41-.55-.8-.57zM0 15h30v5H0z' fill='#faa61a'/><path fill='#00579f' d='M0 0h30v5H0z'/><path fill='#30393f' d='M36 0h30v20H36z'/><path d='M54.28 15.9h-6.56V4.1h6.56z' fill='#ff5f00'/><path d='M48.14 10A7.52 7.52 0 0151 4.1a7.5 7.5 0 100 11.8 7.52 7.52 0 01-2.86-5.9' fill='#eb001b'/><path d='M63.13 10A7.5 7.5 0 0151 15.9a7.52 7.52 0 000-11.8A7.5 7.5 0 0163.13 10' fill='#f79e1b'/><path fill='#0a7ec2' d='M102 0H72v20h30'/><path d='M78.18 12l-.4.92h-3.53L77 7.08h6.7l.67 1.29.63-1.29h9l.76.8.83-.8h4.17l-3 2.91 2.83 2.93h-4l-.91-.86-.89.86H79.38l-.44-.92m0 .06zm8.53-4.15h-1.74l-1.32 2.8L83 7.91h-1.77V12l-1.81-4.09h-1.64l-1.94 4.18H77l.4-.95h2.25l.45.95h2.2v-3.4l1.55 3.4h1l1.54-3.34v3.34h1.07V7.91zm7.25 1.35l-1.25-1.35h-5v4.18h4.87l1.38-1.37 1.38 1.37h1.3l-2-2.12 2-2.06h-1.33zm-2.65 2h-2.55v-.92h2.56V9.5h-2.56v-.75h2.56V8L94 9.93l-1.9 1.91zM78.57 8.6l.73 1.69h-1.52z' fill='#fff'/><path d='M108 0v20h30V0z' fill='#4d4d4d'/><path d='M120.16 6.49a2.42 2.42 0 011.11.27v1a1.54 1.54 0 00-1.13-.49 1.49 1.49 0 00-1.51 1.49 1.47 1.47 0 001.55 1.5 1.49 1.49 0 001.09-.47v1a2.7 2.7 0 01-1.13.25 2.32 2.32 0 01-2.43-2.26 2.35 2.35 0 012.45-2.29zm-4.26 0a2.15 2.15 0 011.36.48l-.47.58a.94.94 0 00-.73-.35c-.39 0-.67.21-.67.48s.16.36.7.55c1 .35 1.33.66 1.33 1.35a1.45 1.45 0 01-1.59 1.42 1.84 1.84 0 01-1.6-.83l.58-.52a1.08 1.08 0 001 .57.64.64 0 00.7-.61.52.52 0 00-.27-.45 4.2 4.2 0 00-.64-.16c-.85-.28-1.14-.58-1.14-1.18a1.33 1.33 0 011.44-1.3zm10.28.08h1l1.23 2.92 1.25-2.92h1l-2 4.45h-.49zm-17.4 0h1.32a2.23 2.23 0 012.47 2.17 2.12 2.12 0 01-.83 1.67 2.56 2.56 0 01-1.65.5h-1.31zm4.21 0h.9V11H113zm18 0h2.55v.73h-1.65v1h1.59V9h-1.59v1.17h1.65v.73H131zm3.15 0h1.33c1 0 1.64.47 1.64 1.28a1.17 1.17 0 01-1 1.23l1.43 1.92h-1.11l-1.25-1.8h-.12V11h-.9V6.61zm.89.68V8.6h.26c.58 0 .88-.23.88-.67s-.31-.64-.86-.64zm-25.38 0v2.87h.24a1.79 1.79 0 001.23-.34 1.47 1.47 0 00.49-1.1 1.43 1.43 0 00-.49-1.08 1.76 1.76 0 00-1.23-.35z' fill='#fff'/><path d='M124 6.46a2.39 2.39 0 012.45 2.31 2.46 2.46 0 01-4.91 0A2.39 2.39 0 01124 6.46zm14 5.37c-1 .7-8.51 5.74-21.49 8.17H138z' fill='#f47216'/><path fill='#e8e7e8' d='M144 0h30v20h-30z'/><path d='M152.19 3h5.59a1.09 1.09 0 011.08 1.42l-2.6 11.16a1.89 1.89 0 01-1.74 1.42h-5.59a1.09 1.09 0 01-1.08-1.42l2.6-11.16A1.89 1.89 0 01152.19 3' fill='#e21836'/><path d='M157.31 3h6.43c.78 0 .43.64.24 1.42l-2.6 11.16c-.18.78-.12 1.42-.9 1.42h-6.43a1.09 1.09 0 01-1.05-1.42l2.6-11.16A1.89 1.89 0 01157.31 3' fill='#00447c'/><path d='M163.48 3h5.59a1.09 1.09 0 011.08 1.42l-2.6 11.16a1.89 1.89 0 01-1.74 1.42h-5.59a1.09 1.09 0 01-1.08-1.42l2.6-11.16A1.89 1.89 0 01163.48 3' fill='#007b84'/><path fill='url(#a)' d='M180 0h30v20h-30z'/><g><path d='M205.76 14.82a3.21 3.21 0 01-3.18 3.23H185.3V5.27a3.21 3.21 0 013.18-3.22h17.28z' fill='#fff'/><path d='M201.3 3.13a2.3 2.3 0 00-2.3 2.31V17h3.34a2.29 2.29 0 002.27-2.31V3.13z' fill='url(#b)'/><path d='M188.72 3.13a2.3 2.3 0 00-2.28 2.31V17h3.34a2.29 2.29 0 002.22-2.34V3.13z' fill='url(#c)'/><path d='M195 3.13a2.3 2.3 0 00-2.28 2.31V17h3.34a2.29 2.29 0 002.28-2.31V3.13z' fill='url(#d)'/></g>
        </symbol>
        <symbol id="icon-info_outline" viewBox="0 0 24 24">
            <path d="M11.016 9v-2.016h1.969v2.016h-1.969zM12 20.016c4.406 0 8.016-3.609 8.016-8.016s-3.609-8.016-8.016-8.016-8.016 3.609-8.016 8.016 3.609 8.016 8.016 8.016zM12 2.016c5.531 0 9.984 4.453 9.984 9.984s-4.453 9.984-9.984 9.984-9.984-4.453-9.984-9.984 4.453-9.984 9.984-9.984zM11.016 17.016v-6h1.969v6h-1.969z"></path>
        </symbol>
        <symbol id="icon-refresh" viewBox="0 0 24 24">
            <path d="M17.672 6.328l2.344-2.344v7.031h-7.031l3.234-3.234c-1.078-1.078-2.578-1.781-4.219-1.781-3.328 0-6 2.672-6 6s2.672 6 6 6c2.625 0 4.875-1.641 5.672-3.984h2.063c-0.891 3.469-3.984 6-7.734 6-4.406 0-7.969-3.609-7.969-8.016s3.563-8.016 7.969-8.016c2.203 0 4.219 0.891 5.672 2.344z"></path>
        </symbol>
        <symbol id="icon-style" viewBox="0 0 24 24">
            <path d="M5.859 19.734v-6.328l3.469 8.344h-1.453c-1.078 0-2.016-0.938-2.016-2.016zM7.875 8.766c0.563 0 0.984-0.469 0.984-1.031s-0.422-0.984-0.984-0.984-0.984 0.422-0.984 0.984 0.422 1.031 0.984 1.031zM22.031 15.938c0.422 1.031-0.047 2.203-1.078 2.625l-7.359 3.047c-0.234 0.094-0.516 0.141-0.797 0.141-0.797 0-1.5-0.469-1.828-1.219l-4.969-12c-0.094-0.281-0.141-0.516-0.141-0.797 0-0.75 0.469-1.453 1.219-1.781l7.406-3.047c0.281-0.094 0.516-0.141 0.797-0.141 0.75 0 1.453 0.469 1.781 1.219zM2.531 19.641c-1.031-0.422-1.5-1.547-1.078-2.578l2.438-5.859v9z"></path>
        </symbol>
        <symbol id="icon-circle-down" viewBox="0 0 32 32">
            <path d="M32 16c0-8.837-7.163-16-16-16s-16 7.163-16 16 7.163 16 16 16 16-7.163 16-16zM3 16c0-7.18 5.82-13 13-13s13 5.82 13 13-5.82 13-13 13-13-5.82-13-13z"></path>
            <path d="M9.914 11.086l-2.829 2.829 8.914 8.914 8.914-8.914-2.828-2.828-6.086 6.086z"></path>
        </symbol>
        <symbol id="desktop-footer-offline" viewBox="0 0 260 93"><defs><filter id="a" x="0" y="0" width="260" height="93" filterUnits="userSpaceOnUse"><feOffset dy="3" input="SourceAlpha"/><feGaussianBlur stdDeviation="3" result="b"/><feFlood flood-opacity="0.161"/><feComposite operator="in" in2="b"/><feComposite in="SourceGraphic"/></filter></defs><g transform="translate(-1074 -611)"><g transform="matrix(1, 0, 0, 1, 1074, 611)" filter="url(#a)"><rect width="242" height="75" rx="5" transform="translate(9 6)" fill="#fff"/></g><path d="M16.406-28.437a15.673,15.673,0,0,0-2.546.205,14.094,14.094,0,0,0-2.41.615,12.982,12.982,0,0,0-2.1.906,12.519,12.519,0,0,0-1.794,1.179,9.33,9.33,0,0,0-2.358,2.8,6.673,6.673,0,0,0-.82,3.179,6.685,6.685,0,0,0,.256,1.829A6.672,6.672,0,0,0,5.4-16a8.084,8.084,0,0,0,1.3,1.675,11.122,11.122,0,0,0,1.777,1.436,4.224,4.224,0,0,1,1.282,1.3,4.821,4.821,0,0,1,.667,1.709,2.943,2.943,0,0,0,.017.325,2.2,2.2,0,0,0,.051.291,1.283,1.283,0,0,1,.137-.12.621.621,0,0,0,.137-.154,4.227,4.227,0,0,1,1.418-.94,4.384,4.384,0,0,1,1.658-.325,2.2,2.2,0,0,1,.273.017,2.2,2.2,0,0,0,.273.017q.513.068,1.008.1t1.008.034a15.673,15.673,0,0,0,2.546-.205,14.094,14.094,0,0,0,2.41-.615,12.981,12.981,0,0,0,2.1-.906,12.519,12.519,0,0,0,1.794-1.179,9.33,9.33,0,0,0,2.358-2.8,6.738,6.738,0,0,0,.82-3.213,6.673,6.673,0,0,0-.82-3.179,9.33,9.33,0,0,0-2.358-2.8,12.519,12.519,0,0,0-1.794-1.179,12.982,12.982,0,0,0-2.1-.906,14.094,14.094,0,0,0-2.41-.615A15.673,15.673,0,0,0,16.406-28.437Zm0-4.375h0a19.23,19.23,0,0,1,6.375,1.042,17.475,17.475,0,0,1,5.229,2.837,13.392,13.392,0,0,1,3.521,4.221,10.893,10.893,0,0,1,1.282,5.161,10.861,10.861,0,0,1-1.282,5.178,13.648,13.648,0,0,1-3.521,4.221A17.261,17.261,0,0,1,22.781-7.3a19.23,19.23,0,0,1-6.375,1.042q-.649,0-1.3-.034a11.3,11.3,0,0,1-1.265-.137A12.228,12.228,0,0,1,11.125-4.29,14.776,14.776,0,0,1,8.22-3.025a16.27,16.27,0,0,1-2.991.632q-1.5.171-3.042.205v-.854a8.694,8.694,0,0,0,2.8-2.2A4.648,4.648,0,0,0,6.152-8.306q0-.239-.017-.461t-.051-.461a14.237,14.237,0,0,1-2.529-2.034,13.014,13.014,0,0,1-1.914-2.461A11.871,11.871,0,0,1,.427-16.509,10.842,10.842,0,0,1,0-19.551a10.892,10.892,0,0,1,1.282-5.161A13.392,13.392,0,0,1,4.8-28.933a17.475,17.475,0,0,1,5.229-2.837A19.23,19.23,0,0,1,16.406-32.812ZM34.043-3.042A4.354,4.354,0,0,0,34.9-.427a5.892,5.892,0,0,0,2.29,1.863v.752a21.911,21.911,0,0,1-5.076-.718,10.78,10.78,0,0,1-4.734-2.905q-.547.068-1.094.1T25.156-1.3a16.844,16.844,0,0,1-4.666-.632,16.563,16.563,0,0,1-4.016-1.726,21.409,21.409,0,0,0,3.657-.308,23.2,23.2,0,0,0,3.452-.872,20.5,20.5,0,0,0,3.2-1.384,17.837,17.837,0,0,0,2.854-1.914,16.051,16.051,0,0,0,2.393-2.341,16.318,16.318,0,0,0,1.812-2.683,13.748,13.748,0,0,0,1.179-3.11,13.756,13.756,0,0,0,.393-3.281q0-.239-.017-.513t-.017-.547A11.827,11.827,0,0,1,38.3-17.039a9.176,9.176,0,0,1,1.077,4.358,9.244,9.244,0,0,1-1.436,4.973,12.551,12.551,0,0,1-3.828,3.879,3.338,3.338,0,0,0-.051.376Q34.043-3.247,34.043-3.042Z" transform="translate(1105 671)" fill="#c3c3c3"/><path d="M2.7-1.035H6.9V0H1.515V-9.435H2.7ZM12.975-4.65a1.971,1.971,0,0,0-.405-1.4,1.561,1.561,0,0,0-1.177-.42,2.251,2.251,0,0,0-1.245.307,1.071,1.071,0,0,0-.472.968H8.37a1.955,1.955,0,0,1,1.77-2.04,5.39,5.39,0,0,1,1.17-.12,3.006,3.006,0,0,1,2.085.675,2.627,2.627,0,0,1,.75,2.055V0h-1.02l-.12-1.2A2.414,2.414,0,0,1,10.62.165,2.62,2.62,0,0,1,8.767-.48a2.1,2.1,0,0,1-.7-1.605,1.729,1.729,0,0,1,.773-1.5,3.283,3.283,0,0,1,1.928-.54,6.281,6.281,0,0,1,2.2.39Zm0,1.665a6.993,6.993,0,0,0-1.86-.3A2.568,2.568,0,0,0,9.825-3a.964.964,0,0,0-.495.9q0,1.35,1.53,1.35a2.036,2.036,0,0,0,1.492-.623A2.182,2.182,0,0,0,12.975-2.985Zm8.835,1.56A2.473,2.473,0,0,1,19.425.135,2.8,2.8,0,0,1,17.468-.54a2.684,2.684,0,0,1-.743-2.085v-4.56H17.91v4.47Q17.91-.9,19.59-.9a1.941,1.941,0,0,0,1.583-.75,3.084,3.084,0,0,0,.638-1.92V-7.185h1.185V0H21.81ZM27.165-5.79A2.459,2.459,0,0,1,29.58-7.35a2.465,2.465,0,0,1,1.987.84,3.435,3.435,0,0,1,.712,2.3V0H31.11V-4.215a2.218,2.218,0,0,0-.487-1.56A1.8,1.8,0,0,0,29.235-6.3a1.738,1.738,0,0,0-1.455.735,3.456,3.456,0,0,0-.585,2.04V0H26.01V-7.17h1.02Zm10.3-1.56A2.967,2.967,0,0,1,39.48-6.7a3,3,0,0,1,.975,1.628l-1.2.105a1.976,1.976,0,0,0-.63-.982,1.49,1.49,0,0,0-.96-.352,1.914,1.914,0,0,0-1.553.72,2.989,2.989,0,0,0-.592,1.957A3.172,3.172,0,0,0,36.1-1.635a1.752,1.752,0,0,0,1.44.75,1.837,1.837,0,0,0,1.29-.4,1.47,1.47,0,0,0,.428-1.133H40.47a2.378,2.378,0,0,1-.8,1.868,3.034,3.034,0,0,1-2.092.713A3.032,3.032,0,0,1,35.257-.87a3.905,3.905,0,0,1-.952-2.753,3.814,3.814,0,0,1,.945-2.723A2.946,2.946,0,0,1,37.463-7.35Zm6.517,1.5a2.46,2.46,0,0,1,2.385-1.5,2.465,2.465,0,0,1,1.988.84,3.435,3.435,0,0,1,.712,2.3V0H47.9V-4.215a2.218,2.218,0,0,0-.488-1.56A1.82,1.82,0,0,0,46-6.3a1.726,1.726,0,0,0-1.47.773A3.607,3.607,0,0,0,43.98-3.39V0H42.795V-10.215H43.98ZM56.61-1.035h4.2V0H55.425V-9.435H56.61Zm5.91-6.15H63.7V0H62.52Zm.585-1.68a.76.76,0,0,1-.562-.2.73.73,0,0,1-.2-.54.73.73,0,0,1,.2-.54.76.76,0,0,1,.563-.2.814.814,0,0,1,.577.2.7.7,0,0,1,.218.54.7.7,0,0,1-.218.54A.814.814,0,0,1,63.1-8.865Zm3.915,1.7,2.16,5.925L71.355-7.17H72.69L69.84,0H68.535l-2.85-7.17ZM76.95-.8a1.487,1.487,0,0,0,1.695-1.3H79.86a2.464,2.464,0,0,1-.952,1.672A3.163,3.163,0,0,1,76.95.165,2.964,2.964,0,0,1,74.61-.863a4.006,4.006,0,0,1-.9-2.738,3.956,3.956,0,0,1,.908-2.73,3.074,3.074,0,0,1,2.415-1.02,2.484,2.484,0,0,1,2.25,1.17A4.14,4.14,0,0,1,79.8-3.33H74.895a2.934,2.934,0,0,0,.54,1.823A1.791,1.791,0,0,0,76.95-.8Zm.87-5.43a1.8,1.8,0,0,0-.84-.18,1.806,1.806,0,0,0-1.447.622A2.726,2.726,0,0,0,74.91-4.23h3.825A2.058,2.058,0,0,0,77.82-6.225ZM89.04-9.6a3.72,3.72,0,0,1,2.438.758A3.84,3.84,0,0,1,92.745-6.87l-1.275.255a2.992,2.992,0,0,0-.938-1.4,2.3,2.3,0,0,0-1.492-.517,2.4,2.4,0,0,0-1.965.99,4.344,4.344,0,0,0-.78,2.752,5.091,5.091,0,0,0,.7,2.828A2.293,2.293,0,0,0,89.04-.9a2.545,2.545,0,0,0,1.777-.593A2.016,2.016,0,0,0,91.47-3.06h1.275A2.945,2.945,0,0,1,91.732-.705a4.119,4.119,0,0,1-2.775.87,3.484,3.484,0,0,1-2.85-1.35A5.6,5.6,0,0,1,85.02-4.8a5.14,5.14,0,0,1,1.125-3.533A3.694,3.694,0,0,1,89.04-9.6Zm7.11,3.75a2.46,2.46,0,0,1,2.385-1.5,2.465,2.465,0,0,1,1.988.84,3.435,3.435,0,0,1,.713,2.3V0h-1.17V-4.215a2.218,2.218,0,0,0-.487-1.56,1.82,1.82,0,0,0-1.4-.525,1.726,1.726,0,0,0-1.47.773A3.607,3.607,0,0,0,96.15-3.39V0H94.965V-10.215H96.15Zm12.315,1.2a1.971,1.971,0,0,0-.4-1.4,1.561,1.561,0,0,0-1.178-.42,2.251,2.251,0,0,0-1.245.307,1.071,1.071,0,0,0-.473.968H103.86a1.955,1.955,0,0,1,1.77-2.04,5.39,5.39,0,0,1,1.17-.12,3.006,3.006,0,0,1,2.085.675,2.627,2.627,0,0,1,.75,2.055V0h-1.02l-.12-1.2A2.414,2.414,0,0,1,106.11.165a2.62,2.62,0,0,1-1.853-.645,2.1,2.1,0,0,1-.7-1.605,1.729,1.729,0,0,1,.772-1.5,3.283,3.283,0,0,1,1.927-.54,6.281,6.281,0,0,1,2.205.39Zm0,1.665a6.993,6.993,0,0,0-1.86-.3,2.568,2.568,0,0,0-1.29.285.964.964,0,0,0-.5.9q0,1.35,1.53,1.35a2.036,2.036,0,0,0,1.492-.623A2.182,2.182,0,0,0,108.465-2.985Zm7.71,2.775a3.166,3.166,0,0,1-2.355.255A1.661,1.661,0,0,1,112.74-.96a2.226,2.226,0,0,1-.165-.9V-6.27H111.42v-.9h1.155V-9.165h1.17V-7.17h2.25v.9h-2.25v4.395q0,1.1,1.02,1.095a3.46,3.46,0,0,0,1.245-.27Z" transform="translate(1161 650)" fill="#333"/><circle cx="4" cy="4" r="4" transform="translate(1161 662)" fill="#c3c3c3"/><path d="M4.845-9.6A3.806,3.806,0,0,1,7.807-8.347,5.262,5.262,0,0,1,8.94-4.7a5.226,5.226,0,0,1-1.125,3.63A3.822,3.822,0,0,1,4.845.165,3.777,3.777,0,0,1,1.883-1.088,5.272,5.272,0,0,1,.765-4.71,5.3,5.3,0,0,1,1.883-8.347,3.777,3.777,0,0,1,4.845-9.6Zm0,1.065a2.493,2.493,0,0,0-2.085.99A4.585,4.585,0,0,0,2-4.7a4.451,4.451,0,0,0,.765,2.82,2.523,2.523,0,0,0,2.085.96,2.544,2.544,0,0,0,2.093-.96A4.419,4.419,0,0,0,7.71-4.7a4.552,4.552,0,0,0-.772-2.85A2.514,2.514,0,0,0,4.845-8.535Zm9.84-.675a2.3,2.3,0,0,0-.78-.2,1.234,1.234,0,0,0-.825.255,1.133,1.133,0,0,0-.3.9v1.08h1.485v.81H12.78V0H11.61V-6.36H10.425v-.81H11.61v-1.1a1.957,1.957,0,0,1,.585-1.568,2.011,2.011,0,0,1,1.35-.5,4.268,4.268,0,0,1,1.35.195Zm5.145,0a2.3,2.3,0,0,0-.78-.2,1.234,1.234,0,0,0-.825.255,1.133,1.133,0,0,0-.3.9v1.08H19.41v.81H17.925V0h-1.17V-6.36H15.57v-.81h1.185v-1.1a1.957,1.957,0,0,1,.585-1.568,2.011,2.011,0,0,1,1.35-.5,4.268,4.268,0,0,1,1.35.195Zm1.665-1.005H22.68V0H21.495Zm4.275,3.03h1.185V0H25.77Zm.585-1.68a.76.76,0,0,1-.562-.2.73.73,0,0,1-.2-.54.73.73,0,0,1,.2-.54.76.76,0,0,1,.563-.2.814.814,0,0,1,.578.2.7.7,0,0,1,.218.54.7.7,0,0,1-.218.54A.814.814,0,0,1,26.355-8.865ZM31.32-5.79a2.459,2.459,0,0,1,2.415-1.56,2.465,2.465,0,0,1,1.987.84,3.435,3.435,0,0,1,.713,2.3V0h-1.17V-4.215a2.218,2.218,0,0,0-.487-1.56A1.8,1.8,0,0,0,33.39-6.3a1.738,1.738,0,0,0-1.455.735,3.456,3.456,0,0,0-.585,2.04V0H30.165V-7.17h1.02ZM41.7-.8A1.487,1.487,0,0,0,43.4-2.1H44.61a2.464,2.464,0,0,1-.952,1.672A3.163,3.163,0,0,1,41.7.165,2.964,2.964,0,0,1,39.36-.863a4.006,4.006,0,0,1-.9-2.738,3.956,3.956,0,0,1,.908-2.73,3.074,3.074,0,0,1,2.415-1.02,2.484,2.484,0,0,1,2.25,1.17,4.14,4.14,0,0,1,.517,2.85h-4.9a2.934,2.934,0,0,0,.54,1.823A1.791,1.791,0,0,0,41.7-.8Zm.87-5.43a1.8,1.8,0,0,0-.84-.18,1.806,1.806,0,0,0-1.447.622A2.726,2.726,0,0,0,39.66-4.23h3.825A2.058,2.058,0,0,0,42.57-6.225Z" transform="translate(1179 671)" fill="#7b7b7b"/><path d="M1384.5,736.25l6.25,6-6.25,6" transform="translate(-91 -87.75)" fill="none"/></g></symbol>
        <symbol id="desktop-footer-online" viewBox="0 0 260 93"><defs><filter id="a" x="0" y="0" width="260" height="93" filterUnits="userSpaceOnUse"><feOffset dy="3" input="SourceAlpha"/><feGaussianBlur stdDeviation="3" result="b"/><feFlood flood-opacity="0.161"/><feComposite operator="in" in2="b"/><feComposite in="SourceGraphic"/></filter></defs><g transform="translate(-1074 -611)"><g transform="matrix(1, 0, 0, 1, 1074, 611)" filter="url(#a)"><rect width="242" height="75" rx="5" transform="translate(9 6)" fill="#fff"/></g><path d="M16.406-28.437a15.673,15.673,0,0,0-2.546.205,14.094,14.094,0,0,0-2.41.615,12.982,12.982,0,0,0-2.1.906,12.519,12.519,0,0,0-1.794,1.179,9.33,9.33,0,0,0-2.358,2.8,6.673,6.673,0,0,0-.82,3.179,6.685,6.685,0,0,0,.256,1.829A6.672,6.672,0,0,0,5.4-16a8.084,8.084,0,0,0,1.3,1.675,11.122,11.122,0,0,0,1.777,1.436,4.224,4.224,0,0,1,1.282,1.3,4.821,4.821,0,0,1,.667,1.709,2.943,2.943,0,0,0,.017.325,2.2,2.2,0,0,0,.051.291,1.283,1.283,0,0,1,.137-.12.621.621,0,0,0,.137-.154,4.227,4.227,0,0,1,1.418-.94,4.384,4.384,0,0,1,1.658-.325,2.2,2.2,0,0,1,.273.017,2.2,2.2,0,0,0,.273.017q.513.068,1.008.1t1.008.034a15.673,15.673,0,0,0,2.546-.205,14.094,14.094,0,0,0,2.41-.615,12.981,12.981,0,0,0,2.1-.906,12.519,12.519,0,0,0,1.794-1.179,9.33,9.33,0,0,0,2.358-2.8,6.738,6.738,0,0,0,.82-3.213,6.673,6.673,0,0,0-.82-3.179,9.33,9.33,0,0,0-2.358-2.8,12.519,12.519,0,0,0-1.794-1.179,12.982,12.982,0,0,0-2.1-.906,14.094,14.094,0,0,0-2.41-.615A15.673,15.673,0,0,0,16.406-28.437Zm0-4.375h0a19.23,19.23,0,0,1,6.375,1.042,17.475,17.475,0,0,1,5.229,2.837,13.392,13.392,0,0,1,3.521,4.221,10.893,10.893,0,0,1,1.282,5.161,10.861,10.861,0,0,1-1.282,5.178,13.648,13.648,0,0,1-3.521,4.221A17.261,17.261,0,0,1,22.781-7.3a19.23,19.23,0,0,1-6.375,1.042q-.649,0-1.3-.034a11.3,11.3,0,0,1-1.265-.137A12.228,12.228,0,0,1,11.125-4.29,14.776,14.776,0,0,1,8.22-3.025a16.27,16.27,0,0,1-2.991.632q-1.5.171-3.042.205v-.854a8.694,8.694,0,0,0,2.8-2.2A4.648,4.648,0,0,0,6.152-8.306q0-.239-.017-.461t-.051-.461a14.237,14.237,0,0,1-2.529-2.034,13.014,13.014,0,0,1-1.914-2.461A11.871,11.871,0,0,1,.427-16.509,10.842,10.842,0,0,1,0-19.551a10.892,10.892,0,0,1,1.282-5.161A13.392,13.392,0,0,1,4.8-28.933a17.475,17.475,0,0,1,5.229-2.837A19.23,19.23,0,0,1,16.406-32.812ZM34.043-3.042A4.354,4.354,0,0,0,34.9-.427a5.892,5.892,0,0,0,2.29,1.863v.752a21.911,21.911,0,0,1-5.076-.718,10.78,10.78,0,0,1-4.734-2.905q-.547.068-1.094.1T25.156-1.3a16.844,16.844,0,0,1-4.666-.632,16.563,16.563,0,0,1-4.016-1.726,21.409,21.409,0,0,0,3.657-.308,23.2,23.2,0,0,0,3.452-.872,20.5,20.5,0,0,0,3.2-1.384,17.837,17.837,0,0,0,2.854-1.914,16.051,16.051,0,0,0,2.393-2.341,16.318,16.318,0,0,0,1.812-2.683,13.748,13.748,0,0,0,1.179-3.11,13.756,13.756,0,0,0,.393-3.281q0-.239-.017-.513t-.017-.547A11.827,11.827,0,0,1,38.3-17.039a9.176,9.176,0,0,1,1.077,4.358,9.244,9.244,0,0,1-1.436,4.973,12.551,12.551,0,0,1-3.828,3.879,3.338,3.338,0,0,0-.051.376Q34.043-3.247,34.043-3.042Z" transform="translate(1105 671)" fill="#6ea438"/><path d="M2.7-1.035H6.9V0H1.515V-9.435H2.7ZM12.975-4.65a1.971,1.971,0,0,0-.405-1.4,1.561,1.561,0,0,0-1.177-.42,2.251,2.251,0,0,0-1.245.307,1.071,1.071,0,0,0-.472.968H8.37a1.955,1.955,0,0,1,1.77-2.04,5.39,5.39,0,0,1,1.17-.12,3.006,3.006,0,0,1,2.085.675,2.627,2.627,0,0,1,.75,2.055V0h-1.02l-.12-1.2A2.414,2.414,0,0,1,10.62.165,2.62,2.62,0,0,1,8.767-.48a2.1,2.1,0,0,1-.7-1.605,1.729,1.729,0,0,1,.773-1.5,3.283,3.283,0,0,1,1.928-.54,6.281,6.281,0,0,1,2.2.39Zm0,1.665a6.993,6.993,0,0,0-1.86-.3A2.568,2.568,0,0,0,9.825-3a.964.964,0,0,0-.495.9q0,1.35,1.53,1.35a2.036,2.036,0,0,0,1.492-.623A2.182,2.182,0,0,0,12.975-2.985Zm8.835,1.56A2.473,2.473,0,0,1,19.425.135,2.8,2.8,0,0,1,17.468-.54a2.684,2.684,0,0,1-.743-2.085v-4.56H17.91v4.47Q17.91-.9,19.59-.9a1.941,1.941,0,0,0,1.583-.75,3.084,3.084,0,0,0,.638-1.92V-7.185h1.185V0H21.81ZM27.165-5.79A2.459,2.459,0,0,1,29.58-7.35a2.465,2.465,0,0,1,1.987.84,3.435,3.435,0,0,1,.712,2.3V0H31.11V-4.215a2.218,2.218,0,0,0-.487-1.56A1.8,1.8,0,0,0,29.235-6.3a1.738,1.738,0,0,0-1.455.735,3.456,3.456,0,0,0-.585,2.04V0H26.01V-7.17h1.02Zm10.3-1.56A2.967,2.967,0,0,1,39.48-6.7a3,3,0,0,1,.975,1.628l-1.2.105a1.976,1.976,0,0,0-.63-.982,1.49,1.49,0,0,0-.96-.352,1.914,1.914,0,0,0-1.553.72,2.989,2.989,0,0,0-.592,1.957A3.172,3.172,0,0,0,36.1-1.635a1.752,1.752,0,0,0,1.44.75,1.837,1.837,0,0,0,1.29-.4,1.47,1.47,0,0,0,.428-1.133H40.47a2.378,2.378,0,0,1-.8,1.868,3.034,3.034,0,0,1-2.092.713A3.032,3.032,0,0,1,35.257-.87a3.905,3.905,0,0,1-.952-2.753,3.814,3.814,0,0,1,.945-2.723A2.946,2.946,0,0,1,37.463-7.35Zm6.517,1.5a2.46,2.46,0,0,1,2.385-1.5,2.465,2.465,0,0,1,1.988.84,3.435,3.435,0,0,1,.712,2.3V0H47.9V-4.215a2.218,2.218,0,0,0-.488-1.56A1.82,1.82,0,0,0,46-6.3a1.726,1.726,0,0,0-1.47.773A3.607,3.607,0,0,0,43.98-3.39V0H42.795V-10.215H43.98ZM56.61-1.035h4.2V0H55.425V-9.435H56.61Zm5.91-6.15H63.7V0H62.52Zm.585-1.68a.76.76,0,0,1-.562-.2.73.73,0,0,1-.2-.54.73.73,0,0,1,.2-.54.76.76,0,0,1,.563-.2.814.814,0,0,1,.577.2.7.7,0,0,1,.218.54.7.7,0,0,1-.218.54A.814.814,0,0,1,63.1-8.865Zm3.915,1.7,2.16,5.925L71.355-7.17H72.69L69.84,0H68.535l-2.85-7.17ZM76.95-.8a1.487,1.487,0,0,0,1.695-1.3H79.86a2.464,2.464,0,0,1-.952,1.672A3.163,3.163,0,0,1,76.95.165,2.964,2.964,0,0,1,74.61-.863a4.006,4.006,0,0,1-.9-2.738,3.956,3.956,0,0,1,.908-2.73,3.074,3.074,0,0,1,2.415-1.02,2.484,2.484,0,0,1,2.25,1.17A4.14,4.14,0,0,1,79.8-3.33H74.895a2.934,2.934,0,0,0,.54,1.823A1.791,1.791,0,0,0,76.95-.8Zm.87-5.43a1.8,1.8,0,0,0-.84-.18,1.806,1.806,0,0,0-1.447.622A2.726,2.726,0,0,0,74.91-4.23h3.825A2.058,2.058,0,0,0,77.82-6.225ZM89.04-9.6a3.72,3.72,0,0,1,2.438.758A3.84,3.84,0,0,1,92.745-6.87l-1.275.255a2.992,2.992,0,0,0-.938-1.4,2.3,2.3,0,0,0-1.492-.517,2.4,2.4,0,0,0-1.965.99,4.344,4.344,0,0,0-.78,2.752,5.091,5.091,0,0,0,.7,2.828A2.293,2.293,0,0,0,89.04-.9a2.545,2.545,0,0,0,1.777-.593A2.016,2.016,0,0,0,91.47-3.06h1.275A2.945,2.945,0,0,1,91.732-.705a4.119,4.119,0,0,1-2.775.87,3.484,3.484,0,0,1-2.85-1.35A5.6,5.6,0,0,1,85.02-4.8a5.14,5.14,0,0,1,1.125-3.533A3.694,3.694,0,0,1,89.04-9.6Zm7.11,3.75a2.46,2.46,0,0,1,2.385-1.5,2.465,2.465,0,0,1,1.988.84,3.435,3.435,0,0,1,.713,2.3V0h-1.17V-4.215a2.218,2.218,0,0,0-.487-1.56,1.82,1.82,0,0,0-1.4-.525,1.726,1.726,0,0,0-1.47.773A3.607,3.607,0,0,0,96.15-3.39V0H94.965V-10.215H96.15Zm12.315,1.2a1.971,1.971,0,0,0-.4-1.4,1.561,1.561,0,0,0-1.178-.42,2.251,2.251,0,0,0-1.245.307,1.071,1.071,0,0,0-.473.968H103.86a1.955,1.955,0,0,1,1.77-2.04,5.39,5.39,0,0,1,1.17-.12,3.006,3.006,0,0,1,2.085.675,2.627,2.627,0,0,1,.75,2.055V0h-1.02l-.12-1.2A2.414,2.414,0,0,1,106.11.165a2.62,2.62,0,0,1-1.853-.645,2.1,2.1,0,0,1-.7-1.605,1.729,1.729,0,0,1,.772-1.5,3.283,3.283,0,0,1,1.927-.54,6.281,6.281,0,0,1,2.205.39Zm0,1.665a6.993,6.993,0,0,0-1.86-.3,2.568,2.568,0,0,0-1.29.285.964.964,0,0,0-.5.9q0,1.35,1.53,1.35a2.036,2.036,0,0,0,1.492-.623A2.182,2.182,0,0,0,108.465-2.985Zm7.71,2.775a3.166,3.166,0,0,1-2.355.255A1.661,1.661,0,0,1,112.74-.96a2.226,2.226,0,0,1-.165-.9V-6.27H111.42v-.9h1.155V-9.165h1.17V-7.17h2.25v.9h-2.25v4.395q0,1.1,1.02,1.095a3.46,3.46,0,0,0,1.245-.27Z" transform="translate(1161 650)" fill="#333"/><circle cx="4" cy="4" r="4" transform="translate(1161 662)" fill="#6ea438"/><path d="M4.845-9.6A3.806,3.806,0,0,1,7.807-8.347,5.262,5.262,0,0,1,8.94-4.7a5.226,5.226,0,0,1-1.125,3.63A3.822,3.822,0,0,1,4.845.165,3.777,3.777,0,0,1,1.883-1.088,5.272,5.272,0,0,1,.765-4.71,5.3,5.3,0,0,1,1.883-8.347,3.777,3.777,0,0,1,4.845-9.6Zm0,1.065a2.493,2.493,0,0,0-2.085.99A4.585,4.585,0,0,0,2-4.7a4.451,4.451,0,0,0,.765,2.82,2.523,2.523,0,0,0,2.085.96,2.544,2.544,0,0,0,2.093-.96A4.419,4.419,0,0,0,7.71-4.7a4.552,4.552,0,0,0-.772-2.85A2.514,2.514,0,0,0,4.845-8.535Zm7.5,2.745A2.459,2.459,0,0,1,14.76-7.35a2.465,2.465,0,0,1,1.987.84,3.435,3.435,0,0,1,.712,2.3V0H16.29V-4.215a2.218,2.218,0,0,0-.488-1.56A1.8,1.8,0,0,0,14.415-6.3a1.738,1.738,0,0,0-1.455.735,3.456,3.456,0,0,0-.585,2.04V0H11.19V-7.17h1.02Zm7.905-4.425h1.185V0H20.25Zm4.275,3.03H25.71V0H24.525Zm.585-1.68a.76.76,0,0,1-.562-.2.73.73,0,0,1-.2-.54.73.73,0,0,1,.2-.54.76.76,0,0,1,.563-.2.814.814,0,0,1,.578.2.7.7,0,0,1,.218.54.7.7,0,0,1-.218.54A.814.814,0,0,1,25.11-8.865ZM30.075-5.79A2.459,2.459,0,0,1,32.49-7.35a2.465,2.465,0,0,1,1.987.84,3.435,3.435,0,0,1,.713,2.3V0H34.02V-4.215a2.218,2.218,0,0,0-.488-1.56A1.8,1.8,0,0,0,32.145-6.3a1.738,1.738,0,0,0-1.455.735,3.456,3.456,0,0,0-.585,2.04V0H28.92V-7.17h1.02ZM40.455-.8A1.487,1.487,0,0,0,42.15-2.1h1.215a2.464,2.464,0,0,1-.952,1.672,3.163,3.163,0,0,1-1.958.593,2.964,2.964,0,0,1-2.34-1.028,4.006,4.006,0,0,1-.9-2.738,3.956,3.956,0,0,1,.908-2.73,3.074,3.074,0,0,1,2.415-1.02,2.484,2.484,0,0,1,2.25,1.17,4.14,4.14,0,0,1,.517,2.85H38.4a2.934,2.934,0,0,0,.54,1.823A1.791,1.791,0,0,0,40.455-.8Zm.87-5.43a1.8,1.8,0,0,0-.84-.18,1.806,1.806,0,0,0-1.447.622,2.726,2.726,0,0,0-.623,1.553H42.24A2.058,2.058,0,0,0,41.325-6.225Z" transform="translate(1179 671)" fill="#7b7b7b"/></g></symbol>
        <symbol id="desktop-header-offline" viewBox="0 0 168 19">
            <g transform="translate(-1005 -30.188)">
                <text id="LIVE_CHAT:_Offline" data-name="LIVE CHAT: Offline" transform="translate(1036 45)" fill="#c3c3c3" font-size="15" font-family="Karla-Bold, Karla" font-weight="700"><tspan x="0" y="0">LIVE CHAT: OFFLINE</tspan></text>
                <path id="Path_13" data-name="Path 13" d="M8.906-15.437a8.508,8.508,0,0,0-1.382.111,7.651,7.651,0,0,0-1.308.334,7.047,7.047,0,0,0-1.141.492,6.8,6.8,0,0,0-.974.64,5.065,5.065,0,0,0-1.28,1.521,3.622,3.622,0,0,0-.445,1.726,3.629,3.629,0,0,0,.139.993,3.622,3.622,0,0,0,.417.937,4.388,4.388,0,0,0,.705.909A6.038,6.038,0,0,0,4.6-7a2.293,2.293,0,0,1,.7.705,2.617,2.617,0,0,1,.362.928,1.6,1.6,0,0,0,.009.176,1.194,1.194,0,0,0,.028.158.7.7,0,0,1,.074-.065.337.337,0,0,0,.074-.083,2.3,2.3,0,0,1,.77-.51,2.38,2.38,0,0,1,.9-.176,1.2,1.2,0,0,1,.148.009,1.2,1.2,0,0,0,.148.009q.278.037.547.056t.547.019a8.508,8.508,0,0,0,1.382-.111A7.651,7.651,0,0,0,11.6-6.216a7.047,7.047,0,0,0,1.141-.492,6.8,6.8,0,0,0,.974-.64,5.065,5.065,0,0,0,1.28-1.521,3.658,3.658,0,0,0,.445-1.744,3.622,3.622,0,0,0-.445-1.726,5.065,5.065,0,0,0-1.28-1.521,6.8,6.8,0,0,0-.974-.64,7.047,7.047,0,0,0-1.141-.492,7.651,7.651,0,0,0-1.308-.334A8.508,8.508,0,0,0,8.906-15.437Zm0-2.375h0a10.439,10.439,0,0,1,3.46.566,9.487,9.487,0,0,1,2.839,1.54,7.27,7.27,0,0,1,1.911,2.292,5.913,5.913,0,0,1,.7,2.8,5.9,5.9,0,0,1-.7,2.811,7.409,7.409,0,0,1-1.911,2.292,9.37,9.37,0,0,1-2.839,1.549,10.439,10.439,0,0,1-3.46.566q-.353,0-.705-.019a6.135,6.135,0,0,1-.687-.074A6.638,6.638,0,0,1,6.04-2.329a8.021,8.021,0,0,1-1.577.687A8.832,8.832,0,0,1,2.839-1.3q-.816.093-1.651.111v-.464a4.72,4.72,0,0,0,1.521-1.2A2.523,2.523,0,0,0,3.34-4.509q0-.13-.009-.25T3.3-5.01a7.728,7.728,0,0,1-1.373-1.1A7.065,7.065,0,0,1,.891-7.45,6.444,6.444,0,0,1,.232-8.962,5.886,5.886,0,0,1,0-10.613a5.913,5.913,0,0,1,.7-2.8,7.27,7.27,0,0,1,1.911-2.292,9.487,9.487,0,0,1,2.839-1.54A10.439,10.439,0,0,1,8.906-17.812ZM18.48-1.651a2.363,2.363,0,0,0,.464,1.419A3.2,3.2,0,0,0,20.188.779v.408A11.894,11.894,0,0,1,17.432.8a5.852,5.852,0,0,1-2.57-1.577q-.3.037-.594.056t-.612.019a9.144,9.144,0,0,1-2.533-.343,8.991,8.991,0,0,1-2.18-.937,11.622,11.622,0,0,0,1.985-.167A12.592,12.592,0,0,0,12.8-2.625a11.129,11.129,0,0,0,1.735-.751,9.683,9.683,0,0,0,1.549-1.039,8.713,8.713,0,0,0,1.3-1.271,8.859,8.859,0,0,0,.983-1.457,7.463,7.463,0,0,0,.64-1.688,7.467,7.467,0,0,0,.213-1.781q0-.13-.009-.278t-.009-.3A6.42,6.42,0,0,1,20.791-9.25a4.981,4.981,0,0,1,.584,2.366,5.018,5.018,0,0,1-.779,2.7,6.814,6.814,0,0,1-2.078,2.106,1.812,1.812,0,0,0-.028.2Q18.48-1.763,18.48-1.651Z" transform="translate(1005 48)" fill="#c3c3c3"/>
            </g>
        </symbol>
        <symbol id="desktop-header-online" viewBox="0 0 184 19">
            <g transform="translate(-1005 -30.188)">
                <text id="LIVE_CHAT:_Available" data-name="LIVE CHAT: Available" transform="translate(1036 45)" fill="#6ea438" font-size="15" font-family="Karla-Bold, Karla" font-weight="700"><tspan x="0" y="0">LIVE CHAT: AVAILABLE</tspan></text>
                <path id="Path_12" data-name="Path 12" d="M8.906-15.437a8.508,8.508,0,0,0-1.382.111,7.651,7.651,0,0,0-1.308.334,7.047,7.047,0,0,0-1.141.492,6.8,6.8,0,0,0-.974.64,5.065,5.065,0,0,0-1.28,1.521,3.622,3.622,0,0,0-.445,1.726,3.629,3.629,0,0,0,.139.993,3.622,3.622,0,0,0,.417.937,4.388,4.388,0,0,0,.705.909A6.038,6.038,0,0,0,4.6-7a2.293,2.293,0,0,1,.7.705,2.617,2.617,0,0,1,.362.928,1.6,1.6,0,0,0,.009.176,1.194,1.194,0,0,0,.028.158.7.7,0,0,1,.074-.065.337.337,0,0,0,.074-.083,2.3,2.3,0,0,1,.77-.51,2.38,2.38,0,0,1,.9-.176,1.2,1.2,0,0,1,.148.009,1.2,1.2,0,0,0,.148.009q.278.037.547.056t.547.019a8.508,8.508,0,0,0,1.382-.111A7.651,7.651,0,0,0,11.6-6.216a7.047,7.047,0,0,0,1.141-.492,6.8,6.8,0,0,0,.974-.64,5.065,5.065,0,0,0,1.28-1.521,3.658,3.658,0,0,0,.445-1.744,3.622,3.622,0,0,0-.445-1.726,5.065,5.065,0,0,0-1.28-1.521,6.8,6.8,0,0,0-.974-.64,7.047,7.047,0,0,0-1.141-.492,7.651,7.651,0,0,0-1.308-.334A8.508,8.508,0,0,0,8.906-15.437Zm0-2.375h0a10.439,10.439,0,0,1,3.46.566,9.487,9.487,0,0,1,2.839,1.54,7.27,7.27,0,0,1,1.911,2.292,5.913,5.913,0,0,1,.7,2.8,5.9,5.9,0,0,1-.7,2.811,7.409,7.409,0,0,1-1.911,2.292,9.37,9.37,0,0,1-2.839,1.549,10.439,10.439,0,0,1-3.46.566q-.353,0-.705-.019a6.135,6.135,0,0,1-.687-.074A6.638,6.638,0,0,1,6.04-2.329a8.021,8.021,0,0,1-1.577.687A8.832,8.832,0,0,1,2.839-1.3q-.816.093-1.651.111v-.464a4.72,4.72,0,0,0,1.521-1.2A2.523,2.523,0,0,0,3.34-4.509q0-.13-.009-.25T3.3-5.01a7.728,7.728,0,0,1-1.373-1.1A7.065,7.065,0,0,1,.891-7.45,6.444,6.444,0,0,1,.232-8.962,5.886,5.886,0,0,1,0-10.613a5.913,5.913,0,0,1,.7-2.8,7.27,7.27,0,0,1,1.911-2.292,9.487,9.487,0,0,1,2.839-1.54A10.439,10.439,0,0,1,8.906-17.812ZM18.48-1.651a2.363,2.363,0,0,0,.464,1.419A3.2,3.2,0,0,0,20.188.779v.408A11.894,11.894,0,0,1,17.432.8a5.852,5.852,0,0,1-2.57-1.577q-.3.037-.594.056t-.612.019a9.144,9.144,0,0,1-2.533-.343,8.991,8.991,0,0,1-2.18-.937,11.622,11.622,0,0,0,1.985-.167A12.592,12.592,0,0,0,12.8-2.625a11.129,11.129,0,0,0,1.735-.751,9.683,9.683,0,0,0,1.549-1.039,8.713,8.713,0,0,0,1.3-1.271,8.859,8.859,0,0,0,.983-1.457,7.463,7.463,0,0,0,.64-1.688,7.467,7.467,0,0,0,.213-1.781q0-.13-.009-.278t-.009-.3A6.42,6.42,0,0,1,20.791-9.25a4.981,4.981,0,0,1,.584,2.366,5.018,5.018,0,0,1-.779,2.7,6.814,6.814,0,0,1-2.078,2.106,1.812,1.812,0,0,0-.028.2Q18.48-1.763,18.48-1.651Z" transform="translate(1005 48)" fill="#6ea438"/>
            </g>
        </symbol>
        <symbol id="mobile-header-offline" viewBox="0 0 23.414 20.813"><path d="M9.756-30.211a9.32,9.32,0,0,0-1.514.122,8.381,8.381,0,0,0-1.433.366,7.719,7.719,0,0,0-1.25.539,7.444,7.444,0,0,0-1.067.7,5.548,5.548,0,0,0-1.4,1.667,3.968,3.968,0,0,0-.488,1.89,3.975,3.975,0,0,0,.152,1.087,3.967,3.967,0,0,0,.457,1.026,4.807,4.807,0,0,0,.772,1,6.614,6.614,0,0,0,1.057.854,2.512,2.512,0,0,1,.762.772,2.867,2.867,0,0,1,.4,1.016,1.75,1.75,0,0,0,.01.193,1.308,1.308,0,0,0,.03.173.763.763,0,0,1,.081-.071.369.369,0,0,0,.081-.091,2.514,2.514,0,0,1,.843-.559,2.607,2.607,0,0,1,.986-.193,1.31,1.31,0,0,1,.163.01,1.31,1.31,0,0,0,.163.01q.3.041.6.061t.6.02a9.32,9.32,0,0,0,1.514-.122A8.381,8.381,0,0,0,12.7-20.11a7.719,7.719,0,0,0,1.25-.539,7.444,7.444,0,0,0,1.067-.7,5.548,5.548,0,0,0,1.4-1.667,4.006,4.006,0,0,0,.488-1.911,3.968,3.968,0,0,0-.488-1.89,5.548,5.548,0,0,0-1.4-1.667,7.444,7.444,0,0,0-1.067-.7,7.719,7.719,0,0,0-1.25-.539,8.381,8.381,0,0,0-1.433-.366A9.32,9.32,0,0,0,9.756-30.211Zm0-2.6h0a11.435,11.435,0,0,1,3.791.62,10.392,10.392,0,0,1,3.11,1.687A7.964,7.964,0,0,1,18.75-28a6.477,6.477,0,0,1,.762,3.069,6.458,6.458,0,0,1-.762,3.079,8.116,8.116,0,0,1-2.093,2.51,10.264,10.264,0,0,1-3.11,1.7,11.435,11.435,0,0,1-3.791.62q-.386,0-.772-.02a6.72,6.72,0,0,1-.752-.081,7.271,7.271,0,0,1-1.616,1.27,8.786,8.786,0,0,1-1.728.752,9.675,9.675,0,0,1-1.778.376q-.894.1-1.809.122v-.508a5.17,5.17,0,0,0,1.667-1.311,2.764,2.764,0,0,0,.691-1.819q0-.142-.01-.274t-.03-.274A8.466,8.466,0,0,1,2.114-20,7.739,7.739,0,0,1,.976-21.461a7.059,7.059,0,0,1-.722-1.656A6.447,6.447,0,0,1,0-24.927,6.477,6.477,0,0,1,.762-28a7.964,7.964,0,0,1,2.093-2.51,10.392,10.392,0,0,1,3.11-1.687A11.435,11.435,0,0,1,9.756-32.812Zm10.488,17.7a2.589,2.589,0,0,0,.508,1.555,3.5,3.5,0,0,0,1.362,1.108V-12a13.029,13.029,0,0,1-3.018-.427,6.41,6.41,0,0,1-2.815-1.728q-.325.041-.65.061t-.671.02a10.016,10.016,0,0,1-2.774-.376A9.849,9.849,0,0,1,9.8-15.476a12.731,12.731,0,0,0,2.175-.183,13.794,13.794,0,0,0,2.053-.518,12.19,12.19,0,0,0,1.9-.823,10.606,10.606,0,0,0,1.7-1.138,9.544,9.544,0,0,0,1.423-1.392,9.7,9.7,0,0,0,1.077-1.6,8.175,8.175,0,0,0,.7-1.85,8.18,8.18,0,0,0,.234-1.951q0-.142-.01-.3t-.01-.325a7.033,7.033,0,0,1,1.738,2.124,5.457,5.457,0,0,1,.64,2.591,5.5,5.5,0,0,1-.854,2.957,7.464,7.464,0,0,1-2.276,2.307,1.985,1.985,0,0,0-.03.224Q20.243-15.232,20.243-15.11Z" transform="translate(0 32.813)" fill="#c3c3c3"/></symbol>
        <symbol id="mobile-header-online" viewBox="0 0 23.414 20.813"><path d="M9.756-30.211a9.32,9.32,0,0,0-1.514.122,8.381,8.381,0,0,0-1.433.366,7.719,7.719,0,0,0-1.25.539,7.444,7.444,0,0,0-1.067.7,5.548,5.548,0,0,0-1.4,1.667,3.968,3.968,0,0,0-.488,1.89,3.975,3.975,0,0,0,.152,1.087,3.967,3.967,0,0,0,.457,1.026,4.807,4.807,0,0,0,.772,1,6.614,6.614,0,0,0,1.057.854,2.512,2.512,0,0,1,.762.772,2.867,2.867,0,0,1,.4,1.016,1.75,1.75,0,0,0,.01.193,1.308,1.308,0,0,0,.03.173.763.763,0,0,1,.081-.071.369.369,0,0,0,.081-.091,2.514,2.514,0,0,1,.843-.559,2.607,2.607,0,0,1,.986-.193,1.31,1.31,0,0,1,.163.01,1.31,1.31,0,0,0,.163.01q.3.041.6.061t.6.02a9.32,9.32,0,0,0,1.514-.122A8.381,8.381,0,0,0,12.7-20.11a7.719,7.719,0,0,0,1.25-.539,7.444,7.444,0,0,0,1.067-.7,5.548,5.548,0,0,0,1.4-1.667,4.006,4.006,0,0,0,.488-1.911,3.968,3.968,0,0,0-.488-1.89,5.548,5.548,0,0,0-1.4-1.667,7.444,7.444,0,0,0-1.067-.7,7.719,7.719,0,0,0-1.25-.539,8.381,8.381,0,0,0-1.433-.366A9.32,9.32,0,0,0,9.756-30.211Zm0-2.6h0a11.435,11.435,0,0,1,3.791.62,10.392,10.392,0,0,1,3.11,1.687A7.964,7.964,0,0,1,18.75-28a6.477,6.477,0,0,1,.762,3.069,6.458,6.458,0,0,1-.762,3.079,8.116,8.116,0,0,1-2.093,2.51,10.264,10.264,0,0,1-3.11,1.7,11.435,11.435,0,0,1-3.791.62q-.386,0-.772-.02a6.72,6.72,0,0,1-.752-.081,7.271,7.271,0,0,1-1.616,1.27,8.786,8.786,0,0,1-1.728.752,9.675,9.675,0,0,1-1.778.376q-.894.1-1.809.122v-.508a5.17,5.17,0,0,0,1.667-1.311,2.764,2.764,0,0,0,.691-1.819q0-.142-.01-.274t-.03-.274A8.466,8.466,0,0,1,2.114-20,7.739,7.739,0,0,1,.976-21.461a7.059,7.059,0,0,1-.722-1.656A6.447,6.447,0,0,1,0-24.927,6.477,6.477,0,0,1,.762-28a7.964,7.964,0,0,1,2.093-2.51,10.392,10.392,0,0,1,3.11-1.687A11.435,11.435,0,0,1,9.756-32.812Zm10.488,17.7a2.589,2.589,0,0,0,.508,1.555,3.5,3.5,0,0,0,1.362,1.108V-12a13.029,13.029,0,0,1-3.018-.427,6.41,6.41,0,0,1-2.815-1.728q-.325.041-.65.061t-.671.02a10.016,10.016,0,0,1-2.774-.376A9.849,9.849,0,0,1,9.8-15.476a12.731,12.731,0,0,0,2.175-.183,13.794,13.794,0,0,0,2.053-.518,12.19,12.19,0,0,0,1.9-.823,10.606,10.606,0,0,0,1.7-1.138,9.544,9.544,0,0,0,1.423-1.392,9.7,9.7,0,0,0,1.077-1.6,8.175,8.175,0,0,0,.7-1.85,8.18,8.18,0,0,0,.234-1.951q0-.142-.01-.3t-.01-.325a7.033,7.033,0,0,1,1.738,2.124,5.457,5.457,0,0,1,.64,2.591,5.5,5.5,0,0,1-.854,2.957,7.464,7.464,0,0,1-2.276,2.307,1.985,1.985,0,0,0-.03.224Q20.243-15.232,20.243-15.11Z" transform="translate(0 32.813)" fill="#6ea438"/></symbol>
        <symbol id="icon-person" viewBox="0 0 24 24">
            <path d="M12 14.016c2.672 0 8.016 1.313 8.016 3.984v2.016h-16.031v-2.016c0-2.672 5.344-3.984 8.016-3.984zM12 12c-2.203 0-3.984-1.781-3.984-3.984s1.781-4.031 3.984-4.031 3.984 1.828 3.984 4.031-1.781 3.984-3.984 3.984z"></path>
        </symbol>
        <symbol id="icon-no-assembly-2" viewBox="0 0 24 24">
            <path d="M10.3,9.7c-0.9-2.5-0.4-5.3,1.6-7.4c2.1-2.2,5.3-2.6,7.9-1.4l-4.6,4.6l3.2,3.2l4.7-4.6c1.3,2.6,0.7,5.8-1.4,7.9 c-2,2.1-4.9,2.6-7.3,1.6l-9.7,9.7c-0.4,0.5-1,0.5-1.5,0l-2.4-2.5c-0.6-0.5-0.6-1.2-0.1-1.5L10.3,9.7z"/>
            <line fill="none" stroke="#000000" stroke-width="2" stroke-miterlimit="10" x1="1.8" y1="3.8" x2="20.9" y2="22.9"/>
            <line fill="none" stroke="#FFFFFF" stroke-width="2" stroke-miterlimit="10" x1="3.3" y1="2.4" x2="22.4" y2="21.6"/>
        </symbol>
        <symbol id="icon-no-assembly" viewBox="0 0 24 24">
            <path d="M22,5.5V20c0,2.2-1.8,4-4,4h-7.3c-1.1,0-2.1-0.4-2.9-1.2l-7.9-8c0,0,1.3-1.2,1.3-1.2c0.2-0.2,0.5-0.3,0.8-0.3 c0.2,0,0.4,0,0.6,0.1c0,0,4.3,2.4,4.3,2.4V4c0-0.8,0.7-1.5,1.5-1.5S10,3.1,10,4v7h1V1.5C11,0.7,11.7,0,12.5,0S14,0.7,14,1.5V11h1 V2.5C15,1.6,15.6,1,16.5,1S18,1.6,18,2.5V11h1V5.5C19,4.6,19.7,4,20.5,4S22,4.6,22,5.5z"/>
            <line fill="none" stroke="#000000" stroke-width="2" stroke-miterlimit="10" x1="3.2" y1="4.1" x2="22.3" y2="23.2"/>
            <line fill="none" stroke="#FFFFFF" stroke-width="2" stroke-miterlimit="10" x1="4.5" y1="2.8" x2="23.6" y2="21.9"/>
        </symbol>
        <symbol id="icon-hamburger" viewBox="0 0 24 24">
			<title>hamburger menu</title>
            <path d="M21 11h-18c-0.6 0-1 0.4-1 1s0.4 1 1 1h18c0.6 0 1-0.4 1-1s-0.4-1-1-1z"></path>
            <path d="M3 7h18c0.6 0 1-0.4 1-1s-0.4-1-1-1h-18c-0.6 0-1 0.4-1 1s0.4 1 1 1z"></path>
            <path d="M21 17h-18c-0.6 0-1 0.4-1 1s0.4 1 1 1h18c0.6 0 1-0.4 1-1s-0.4-1-1-1z"></path>
        </symbol>
        <symbol id="icon-cart" viewBox="0 0 19 17">
            <title>cart</title>
            <path d="M14.3848 8h-8.99l-.728-4h11.051l-1.333 4zm3.532-5.585c.188.261.239.597.137.901l-1.773 5.317c-.271.817-1.034 1.367-1.896 1.367h-8.627l.182 1h9.166c.552 0 1 .447 1 1 0 .553-.448 1-1 1h-9.165c-.967 0-1.794-.69-1.968-1.642L2.2708 2h-1.165c-.553 0-1-.447-1-1 0-.553.447-1 1-1h2c.483 0 .897.346.983.821L4.3028 2h12.803c.321 0 .623.154.811.415zM8.1055 15.5c0 .828-.672 1.5-1.5 1.5s-1.5-.672-1.5-1.5.672-1.5 1.5-1.5 1.5.672 1.5 1.5zm7 0c0 .828-.672 1.5-1.5 1.5s-1.5-.672-1.5-1.5.672-1.5 1.5-1.5 1.5.672 1.5 1.5z"></path>
        </symbol>
        <symbol id="icon-info" viewBox="0 0 20 20">
            <title>tool tip</title>
            <path d="M12.432 0c1.34 0 2.010 0.912 2.010 1.957 0 1.305-1.164 2.512-2.679 2.512-1.269 0-2.009-0.75-1.974-1.99 0-1.043 0.881-2.479 2.643-2.479zM8.309 20c-1.058 0-1.833-0.652-1.093-3.524l1.214-5.092c0.211-0.814 0.246-1.141 0-1.141-0.317 0-1.689 0.562-2.502 1.117l-0.528-0.88c2.572-2.186 5.531-3.467 6.801-3.467 1.057 0 1.233 1.273 0.705 3.23l-1.391 5.352c-0.246 0.945-0.141 1.271 0.106 1.271 0.317 0 1.357-0.392 2.379-1.207l0.6 0.814c-2.502 2.547-5.235 3.527-6.291 3.527z"></path>
        </symbol>
        <symbol id="icon-swatch" viewBox="0 0 20 20">
            <title>Swatch</title>
            <path d="M19.398 7.415l-7.444-1.996-1.303-4.861c-0.109-0.406-0.545-0.642-0.973-0.529l-9.076 2.432c-0.428 0.114-0.686 0.538-0.577 0.944l3.23 12.051c0.109 0.406 0.544 0.643 0.971 0.527l3.613-0.967-0.492 1.838c-0.109 0.406 0.149 0.83 0.577 0.943l8.11 2.174c0.428 0.115 0.862-0.121 0.972-0.529l2.97-11.084c0.108-0.406-0.15-0.83-0.578-0.943zM1.633 3.631l7.83-2.096 2.898 10.818-7.83 2.096-2.898-10.818zM15.678 18.463l-6.814-1.863 0.536-2.002 3.901-1.047c0.428-0.113 0.688-0.537 0.578-0.943l-1.508-5.627 5.947 1.631-2.64 9.851z"></path>
        </symbol>
        <symbol id="icon-alert-triangle" viewBox="0 0 24 24">
            <title>icon-alert-triangle</title>
            <path d="M23 17.5l-8.4-14.2c-0.4-0.7-1.1-1.2-1.9-1.4s-1.6-0.1-2.3 0.3c-0.4 0.2-0.8 0.6-1 1 0 0 0 0 0 0l-8.4 14.3c-0.8 1.4-0.3 3.3 1.1 4.1 0.4 0.3 0.9 0.4 1.4 0.4h17c0.8 0 1.6-0.3 2.1-0.9 0.6-0.6 0.9-1.3 0.9-2.1-0.1-0.5-0.2-1.1-0.5-1.5zM21.2 19.7c-0.2 0.2-0.5 0.3-0.7 0.3h-17c-0.2 0-0.3 0-0.5-0.1-0.5-0.3-0.6-0.9-0.4-1.4l8.5-14.1c0.1-0.1 0.2-0.3 0.3-0.3 0.5-0.3 1.1-0.1 1.4 0.3l8.5 14.1c0.1 0.1 0.1 0.3 0.1 0.5 0.1 0.3-0.1 0.5-0.2 0.7z"></path>
            <path d="M12 8c-0.6 0-1 0.4-1 1v4c0 0.6 0.4 1 1 1s1-0.4 1-1v-4c0-0.6-0.4-1-1-1z"></path>
            <path d="M11.3 16.3c-0.2 0.2-0.3 0.4-0.3 0.7s0.1 0.5 0.3 0.7c0.2 0.2 0.4 0.3 0.7 0.3s0.5-0.1 0.7-0.3c0.2-0.2 0.3-0.5 0.3-0.7s-0.1-0.5-0.3-0.7c-0.4-0.4-1-0.4-1.4 0z"></path>
        </symbol>
        <symbol id="icon-check2" viewBox="0 0 24 24">
            <title>icon-check</title>
            <path d="M20.7 5.3c-0.4-0.4-1-0.4-1.4 0l-10.3 10.3-4.3-4.3c-0.4-0.4-1-0.4-1.4 0s-0.4 1 0 1.4l5 5c0.2 0.2 0.4 0.3 0.7 0.3s0.5-0.1 0.7-0.3l11-11c0.4-0.4 0.4-1 0-1.4z"></path>
        </symbol>
        <symbol id="icon-grid" viewBox="0 0 20 20">
            <title>grid</title>
            <path d="M8 4h-3c-0.553 0-1 0.447-1 1v3c0 0.552 0.447 1 1 1h3c0.553 0 1-0.448 1-1v-3c0-0.552-0.447-1-1-1zM15 4h-3c-0.553 0-1 0.447-1 1v3c0 0.552 0.447 1 1 1h3c0.553 0 1-0.448 1-1v-3c0-0.552-0.447-1-1-1zM8 11h-3c-0.553 0-1 0.447-1 1v3c0 0.552 0.447 1 1 1h3c0.553 0 1-0.448 1-1v-3c0-0.552-0.447-1-1-1zM15 11h-3c-0.553 0-1 0.447-1 1v3c0 0.552 0.447 1 1 1h3c0.553 0 1-0.448 1-1v-3c0-0.552-0.447-1-1-1z"></path>
        </symbol>
        <symbol id="icon-list" viewBox="0 0 20 20">
            <title>list</title>
            <path d="M14.4 9h-5.8c-0.552 0-0.6 0.447-0.6 1s0.048 1 0.6 1h5.8c0.552 0 0.6-0.447 0.6-1s-0.048-1-0.6-1zM16.4 14h-7.8c-0.552 0-0.6 0.447-0.6 1s0.048 1 0.6 1h7.8c0.552 0 0.6-0.447 0.6-1s-0.048-1-0.6-1zM8.6 6h7.8c0.552 0 0.6-0.447 0.6-1s-0.048-1-0.6-1h-7.8c-0.552 0-0.6 0.447-0.6 1s0.048 1 0.6 1zM5.4 9h-1.8c-0.552 0-0.6 0.447-0.6 1s0.048 1 0.6 1h1.8c0.552 0 0.6-0.447 0.6-1s-0.048-1-0.6-1zM5.4 14h-1.8c-0.552 0-0.6 0.447-0.6 1s0.048 1 0.6 1h1.8c0.552 0 0.6-0.447 0.6-1s-0.048-1-0.6-1zM5.4 4h-1.8c-0.552 0-0.6 0.447-0.6 1s0.048 1 0.6 1h1.8c0.552 0 0.6-0.447 0.6-1s-0.048-1-0.6-1z"></path>
        </symbol>
        <symbol id="icon-star" viewBox="0 0 1024 1024">
            <title>star</title>
            <path class="path1" d="M984.504 339.577c-47.75-21.094-174.154-30.282-283.219-34.282-34.154-98.685-88.749-246.342-134.435-291.469-18.627-18.435-48.374-18.435-67.034 0-45.654 45.158-100.278 192.813-134.403 291.469-109.034 4-235.376 13.187-283.19 34.253-25.818 11.411-36.614 42.838-22.938 68.093 31.126 57.28 110.064 142.531 209.126 226.499-27.094 110.25-45.126 210.938-49.936 279.782-2.682 37.779 36.579 64.221 70.125 46.56 62.013-32.925 141.645-67.862 244.749-132.56 32.006 20.096 237.859 138.093 267.002 138.093 27.814 0 49.875-23.866 47.872-52.093-4.81-68.845-22.842-169.533-49.936-279.782 99.094-84 178.032-169.251 209.126-226.531 13.616-25.072 2.998-56.643-22.909-68.032v0z"></path>
        </symbol>
        <symbol id="icon-arrow-up" viewBox="0 0 1489 1024">
            <title>arrow-up</title>
            <path class="path1" d="M1186.251 890.277l-441.599-446.717-441.599 446.717c-69.413 69.413-181.72 69.413-251.133 0-69.041-70.157-69.413-183.581 0-253.738l567.398-572.795c69.041-69.413 181.72-69.413 251.133 0l567.026 572.795c69.32 70.157 69.32 183.581-0.093 253.738-69.413 69.413-181.72 69.413-251.133 0z"></path>
        </symbol>
        <symbol id="icon-long-arrow-right" viewBox="0 0 20 20">
            <title>long-arrow-right</title>
            <path d="M27 13.953c0 0.141-0.063 0.281-0.156 0.375l-6 5.531c-0.156 0.141-0.359 0.172-0.547 0.094-0.172-0.078-0.297-0.25-0.297-0.453v-3.5h-19.5c-0.281 0-0.5-0.219-0.5-0.5v-3c0-0.281 0.219-0.5 0.5-0.5h19.5v-3.5c0-0.203 0.109-0.375 0.297-0.453s0.391-0.047 0.547 0.078l6 5.469c0.094 0.094 0.156 0.219 0.156 0.359v0z"></path>
        </symbol>
        <symbol id="icon-long-arrow-left" viewBox="0 0 29 28">
            <title>icon-long-arrow-left</title>
            <path d="M28 12.5v3c0 0.281-0.219 0.5-0.5 0.5h-19.5v3.5c0 0.203-0.109 0.375-0.297 0.453s-0.391 0.047-0.547-0.078l-6-5.469c-0.094-0.094-0.156-0.219-0.156-0.359v0c0-0.141 0.063-0.281 0.156-0.375l6-5.531c0.156-0.141 0.359-0.172 0.547-0.094 0.172 0.078 0.297 0.25 0.297 0.453v3.5h19.5c0.281 0 0.5 0.219 0.5 0.5z"></path>
        </symbol>
        <symbol id="icon-arrow-left" viewBox="0 0 20 20">
            <title>arrow-left</title>
            <path d='M13.891 17.418c0.268 0.272 0.268 0.709 0 0.979s-0.701 0.271-0.969 0l-7.83-7.908c-0.268-0.27-0.268-0.707 0-0.979l7.83-7.908c0.268-0.27 0.701-0.27 0.969 0s0.268 0.709 0 0.979l-7.141 7.419 7.141 7.418z'></path>
        </symbol>
        <symbol id="icon-arrow-right" viewBox="0 0 20 20">
            <title>arrow-right</title>
            <path d='M13.25 10l-7.141-7.42c-0.268-0.27-0.268-0.707 0-0.979 0.268-0.27 0.701-0.27 0.969 0l7.83 7.908c0.268 0.271 0.268 0.709 0 0.979l-7.83 7.908c-0.268 0.271-0.701 0.27-0.969 0s-0.268-0.707 0-0.979l7.141-7.417z'></path>
        </symbol>
        <symbol id="icon-close" viewBox="0 0 24 24">
            <title>close</title>
            <path d="M13.4 12l5.3-5.3c0.4-0.4 0.4-1 0-1.4s-1-0.4-1.4 0l-5.3 5.3-5.3-5.3c-0.4-0.4-1-0.4-1.4 0s-0.4 1 0 1.4l5.3 5.3-5.3 5.3c-0.4 0.4-0.4 1 0 1.4 0.2 0.2 0.4 0.3 0.7 0.3s0.5-0.1 0.7-0.3l5.3-5.3 5.3 5.3c0.2 0.2 0.5 0.3 0.7 0.3s0.5-0.1 0.7-0.3c0.4-0.4 0.4-1 0-1.4l-5.3-5.3z"></path>
        </symbol>
        <symbol id="icon-arrow-down" viewBox="0 0 1024 1024">
            <title>arrow-down</title>
            <path class="path1" d="M208.453 199.435l303.599 307.118 303.599-307.118c47.721-47.721 124.932-47.721 172.654 0 47.465 48.233 47.721 126.212 0 174.445l-390.086 393.796c-47.465 47.721-124.932 47.721-172.654 0l-389.83-393.796c-47.657-48.233-47.657-126.212 0.064-174.445 47.721-47.721 124.932-47.721 172.654 0z"></path>
        </symbol>
        <symbol id="icon-chevron-up" viewBox="0 0 24 24">
            <path d="M18.7 14.3l-6-6c-0.4-0.4-1-0.4-1.4 0l-6 6c-0.4 0.4-0.4 1 0 1.4s1 0.4 1.4 0l5.3-5.3 5.3 5.3c0.2 0.2 0.5 0.3 0.7 0.3s0.5-0.1 0.7-0.3c0.4-0.4 0.4-1 0-1.4z"></path>
        </symbol>
        <symbol id="icon-chevron-down" viewBox="0 0 24 24">
            <title>icon-chevron-down</title>
            <path d="M18.7 8.3c-0.4-0.4-1-0.4-1.4 0l-5.3 5.3-5.3-5.3c-0.4-0.4-1-0.4-1.4 0s-0.4 1 0 1.4l6 6c0.2 0.2 0.5 0.3 0.7 0.3s0.5-0.1 0.7-0.3l6-6c0.4-0.4 0.4-1 0-1.4z"></path>
        </symbol>
        <symbol id="icon-heart" viewBox="0 0 24 24">
            <title>icon-heart</title>
            <path d="M21.5 3.9v0c-1.2-1.2-2.8-1.9-4.5-1.9v0c-1.7 0-3.4 0.7-4.6 1.9 0 0 0 0 0 0l-0.4 0.4-0.4-0.4c-1.2-1.2-2.8-1.9-4.6-1.9-1.7 0-3.3 0.7-4.5 1.9s-2 2.9-2 4.6 0.7 3.4 1.9 4.6l8.8 8.8c0.2 0.2 0.4 0.3 0.7 0.3s0.5-0.1 0.7-0.3l8.8-8.8c2.7-2.5 2.7-6.7 0.1-9.2zM20.1 11.7l-8.1 8.1-8.1-8.1c-1.8-1.8-1.8-4.6 0-6.4 0.8-0.9 2-1.3 3.1-1.3 1.2 0 2.3 0.4 3.2 1.3l1.1 1.1c0.4 0.4 1 0.4 1.4 0l1-1.1c0 0 0 0 0 0 0.9-0.8 2-1.3 3.3-1.3 0 0 0 0 0 0 1.2 0 2.3 0.5 3.2 1.3v0c0.8 0.9 1.3 2 1.3 3.2s-0.5 2.3-1.4 3.2z"></path>
        </symbol>
        <symbol id="icon-award" viewBox="0 0 24 24">
            <title>icon-award</title>
            <path d="M20 8c0-4.4-3.6-8-8-8s-8 3.6-8 8c0 2.6 1.2 4.9 3.1 6.3l-1.1 8.6c-0.1 0.4 0.1 0.8 0.4 1s0.7 0.2 1.1 0l4.5-2.7 4.5 2.7c0.1 0.1 0.3 0.1 0.5 0.1s0.4-0.1 0.5-0.2 0.5-0.6 0.4-1l-1.1-8.5c2-1.4 3.2-3.7 3.2-6.3zM6 8c0-3.3 2.7-6 6-6s6 2.7 6 6-2.7 6-6 6-6-2.7-6-6zM15.7 21.1l-3.2-1.9c-0.3-0.2-0.7-0.2-1 0l-3.2 1.9 0.7-5.7c0.9 0.4 1.9 0.6 3 0.6s2.1-0.2 3-0.6l0.7 5.7z"></path>
        </symbol>
        <symbol id="icon-shield" viewBox="0 0 24 24">
            <title>icon-shield</title>
            <path d="M20.4 4.1l-8-3c-0.2-0.1-0.5-0.1-0.7 0l-8 3c-0.4 0.1-0.7 0.5-0.7 0.9v7c0 6.5 8.2 10.7 8.6 10.9 0.1 0.1 0.2 0.1 0.4 0.1s0.3 0 0.4-0.1c0.4-0.2 8.6-4.4 8.6-10.9v-7c0-0.4-0.3-0.8-0.6-0.9zM19 12c0 4.5-5.4 7.9-7 8.9-1.6-0.9-7-4.3-7-8.9v-6.3l7-2.6 7 2.6v6.3z"></path>
        </symbol>
        <symbol id="icon-umbrella" viewBox="0 0 24 24">
            <title>icon-umbrella</title>
            <path d="M10.9 1.1c-5.8 0.5-10.3 5.1-10.9 10.8 0 0.3 0.1 0.6 0.3 0.8 0.1 0.2 0.4 0.3 0.7 0.3h10v6c0 2.2 1.8 4 4 4s4-1.8 4-4c0-0.6-0.4-1-1-1s-1 0.4-1 1c0 1.1-0.9 2-2 2s-2-0.9-2-2v-6h10c0.3 0 0.6-0.1 0.7-0.3s0.3-0.5 0.3-0.8c-0.6-6.6-6.5-11.5-13.1-10.8zM12 11h-9.8c0.8-4.3 4.4-7.5 8.8-8 5.1-0.5 9.8 3 10.8 8h-9.8z"></path>
        </symbol>
        <symbol id="icon-corner-up-left" viewBox="0 0 24 24">
            <title>icon-corner-up</title>
            <path d="M16 8h-9.6l3.3-3.3c0.4-0.4 0.4-1 0-1.4s-1-0.4-1.4 0l-5 5c-0.1 0.1-0.2 0.2-0.2 0.3-0.1 0.3-0.1 0.5 0 0.8 0.1 0.1 0.1 0.2 0.2 0.3l5 5c0.2 0.2 0.4 0.3 0.7 0.3s0.5-0.1 0.7-0.3c0.4-0.4 0.4-1 0-1.4l-3.3-3.3h9.6c1.7 0 3 1.3 3 3v7c0 0.6 0.4 1 1 1s1-0.4 1-1v-7c0-2.8-2.2-5-5-5z"></path>
        </symbol>
        <symbol id="icon-truck" viewBox="0 0 24 24">
            <title>icon-truck</title>
            <path d="M23.7 10.3l-3-3c-0.2-0.2-0.4-0.3-0.7-0.3h-3v-4c0-0.6-0.4-1-1-1h-15c-0.6 0-1 0.4-1 1v13c0 0.6 0.4 1 1 1h1.4c-0.3 0.5-0.4 1-0.4 1.5 0 1.9 1.6 3.5 3.5 3.5s3.5-1.6 3.5-3.5c0-0.5-0.1-1-0.4-1.5h6.7c-0.2 0.5-0.4 1-0.4 1.5 0 1.9 1.6 3.5 3.5 3.5s3.5-1.6 3.5-3.5c0-0.5-0.1-1-0.4-1.5h1.5c0.6 0 1-0.4 1-1v-5c0-0.3-0.1-0.5-0.3-0.7zM2 4h13v11h-13v-11zM7 18.5c0 0.8-0.7 1.5-1.5 1.5s-1.5-0.7-1.5-1.5 0.7-1.5 1.5-1.5 1.5 0.7 1.5 1.5zM20 18.5c0 0.8-0.7 1.5-1.5 1.5s-1.5-0.7-1.5-1.5 0.7-1.5 1.5-1.5 1.5 0.7 1.5 1.5zM22 15h-5v-6h2.6l2.4 2.4v3.6z"></path>
        </symbol>
        <symbol id="icon-search" viewBox="0 0 1024 1024">
            <title>search</title>
            <path class="path1" d="M991.284 891.053l-187.091-187.151c52.706-70.415 84.269-157.455 84.269-252.145 0-232.87-188.777-421.647-421.647-421.647s-421.647 188.777-421.647 421.647c0 232.87 188.777 421.647 421.647 421.647 94.69 0 181.85-31.563 252.265-84.269l187.031 187.091c23.552 23.552 61.621 23.552 85.173 0s23.552-61.621 0-85.173v0zM466.816 752.934c-166.37 0-301.176-134.807-301.176-301.176s134.807-301.176 301.176-301.176c166.37 0 301.176 134.807 301.176 301.176s-134.807 301.176-301.176 301.176v0z"></path>
        </symbol>
        <symbol id="icon-search2" viewBox="0 0 17 17">
            <title>search2</title>
            <path d="M16.46 14.8l-3.1-3.1c.87-1.18 1.4-2.63 1.4-4.2 0-3.87-3.14-7-7-7-3.88 0-7 3.13-7 7s3.12 7 7 7c1.56 0 3-.52 4.18-1.4l3.1 3.1c.4.4 1.03.4 1.42 0 .4-.38.4-1.02 0-1.4zm-8.7-2.3c-2.77 0-5-2.24-5-5s2.23-5 5-5c2.75 0 5 2.24 5 5s-2.25 5-5 5z"></path>
        </symbol>
        <symbol id="icon-search111" viewBox="0 0 24 24">
            <title>icon-search111</title>
            <path d="M21.7 20.3l-3.7-3.7c1.2-1.5 2-3.5 2-5.6 0-5-4-9-9-9s-9 4-9 9c0 5 4 9 9 9 2.1 0 4.1-0.7 5.6-2l3.7 3.7c0.2 0.2 0.5 0.3 0.7 0.3s0.5-0.1 0.7-0.3c0.4-0.4 0.4-1 0-1.4zM4 11c0-3.9 3.1-7 7-7s7 3.1 7 7c0 1.9-0.8 3.7-2 4.9 0 0 0 0 0 0s0 0 0 0c-1.3 1.3-3 2-4.9 2-4 0.1-7.1-3-7.1-6.9z"></path>
        </symbol>
        <symbol id="icon-filter" viewBox="0 0 24 24">
            <title>icon-filter</title>
            <path d="M22.9 2.6c-0.2-0.4-0.5-0.6-0.9-0.6h-20c-0.4 0-0.7 0.2-0.9 0.6-0.2 0.3-0.1 0.7 0.1 1l7.8 9.2v6.2c0 0.4 0.2 0.7 0.6 0.9l4 2c0.1 0.1 0.2 0.1 0.4 0.1s0.4 0 0.5-0.1c0.3-0.2 0.5-0.5 0.5-0.9v-8.2l7.8-9.2c0.2-0.3 0.3-0.7 0.1-1zM13.2 11.8c-0.1 0.2-0.2 0.4-0.2 0.7v6.9l-2-1v-5.9c0-0.2-0.1-0.5-0.2-0.6l-6.6-7.9h15.7l-6.7 7.8z"></path>
        </symbol>
        <symbol id="icon-check-mark" viewBox="0 0 1408 1024">
            <title>check-mark</title>
            <path class="path1" d="M1317.965 53.443c-61.952-61.983-162.41-61.983-224.362 0l-551.661 551.599-271.101-271.101c-61.921-61.983-162.44-61.983-224.362 0-61.952 61.952-61.952 162.41 0 224.362l383.282 383.313c30.976 31.007 71.594 46.464 112.181 46.464s81.205-15.457 112.181-46.464l663.811-663.811c61.983-61.952 61.983-162.41 0.031-224.362z"></path>
        </symbol>
        <symbol id="icon-plus" viewBox="0 0 1024 1024">
            <title>plus</title>
            <path class="path1" d="M133.766 603.15c-44.237 0-80.101-40.816-80.101-91.161v0c0-50.344 35.865-91.161 80.101-91.161h762.774c44.237 0 80.101 40.816 80.101 91.161v0c0 50.344-35.865 91.161-80.101 91.161h-762.774z"></path>
            <path class="path2" d="M515.153 973.477c-50.344 0-91.161-35.865-91.161-80.101v-762.774c0-44.237 40.816-80.101 91.161-80.101s91.161 35.865 91.161 80.101v762.774c0 44.237-40.816 80.101-91.161 80.101z"></path>
        </symbol>
        <symbol id="icon-plus2" viewBox="0 0 24 24">
            <title>icon-plus2</title>
            <path d="M19 11h-6v-6c0-0.6-0.4-1-1-1s-1 0.4-1 1v6h-6c-0.6 0-1 0.4-1 1s0.4 1 1 1h6v6c0 0.6 0.4 1 1 1s1-0.4 1-1v-6h6c0.6 0 1-0.4 1-1s-0.4-1-1-1z"></path>
        </symbol>
        <symbol id="icon-message-square" viewBox="0 0 24 24">
            <title>icon-message-square</title>
            <path d="M19 2h-14c-1.7 0-3 1.3-3 3v16c0 0.4 0.2 0.8 0.6 0.9 0.1 0.1 0.3 0.1 0.4 0.1 0.3 0 0.5-0.1 0.7-0.3l3.7-3.7h11.6c1.7 0 3-1.3 3-3v-10c0-1.7-1.3-3-3-3zM20 15c0 0.6-0.4 1-1 1h-12c-0.3 0-0.5 0.1-0.7 0.3l-2.3 2.3v-13.6c0-0.6 0.4-1 1-1h14c0.6 0 1 0.4 1 1v10z"></path>
        </symbol>
        <symbol id="icon-minus" viewBox="0 0 1024 1024">
            <title>minus</title>
            <path class="path1" d="M133.766 603.15c-44.237 0-80.101-40.816-80.101-91.161v0c0-50.344 35.865-91.161 80.101-91.161h762.774c44.237 0 80.101 40.816 80.101 91.161v0c0 50.344-35.865 91.161-80.101 91.161h-762.774z"></path>
        </symbol>
        <symbol id="icon-avatar" viewBox="0 0 1024 1024">
            <title>avatar</title>
            <path class="path1" d="M512 0c-282.752 0-512 229.248-512 512s229.248 512 512 512c282.752 0 512-229.248 512-512s-229.248-512-512-512v0zM326.72 848.256c21.312-82.752 95.808-144.256 185.28-144.256s164.032 61.504 185.344 144.256c-55.040 30.336-118.080 47.744-185.344 47.744s-130.304-17.408-185.28-47.744v0zM512 512c-35.392 0-64-28.608-64-64s28.608-64 64-64c35.392 0 64 28.608 64 64s-28.608 64-64 64v0zM802.048 763.136c-34.24-74.688-95.872-133.888-172.608-164.288 45.056-35.072 74.56-89.28 74.56-150.848 0-105.984-85.952-192-192-192s-192 86.016-192 192c0 61.568 29.504 115.776 74.56 150.848-76.736 30.4-138.368 89.6-172.608 164.288-58.368-67.392-93.952-155.008-93.952-251.136 0-212.096 171.968-384 384-384 212.096 0 384 171.904 384 384 0 96.128-35.584 183.744-93.952 251.136v0z"></path>
        </symbol>
        <symbol id="icon-calendar" viewBox="0 0 1024 1024">
            <title>calendar</title>
            <path class="path1" d="M960 64h-192c0-35.392-28.608-64-64-64s-64 28.608-64 64h-256c0-35.392-28.608-64-64-64s-64 28.608-64 64h-192c-35.392 0-64 28.608-64 64v832c0 35.392 28.608 64 64 64h896c35.392 0 64-28.608 64-64v-832c0-35.392-28.608-64-64-64v0zM128 448h768v448h-768v-448zM896 320h-768v-128h128c0 35.392 28.608 64 64 64s64-28.608 64-64h256c0 35.392 28.608 64 64 64s64-28.608 64-64h128v128z"></path>
        </symbol>
        <symbol id="icon-delete" viewBox="0 0 896 1024">
            <title>delete</title>
            <path class="path1" d="M128 960c0 35.392 28.608 64 64 64h512c35.392 0 64-28.608 64-64v-704h-640v704zM256 384h384v512h-384v-512zM832 64h-256c0-35.392-28.608-64-64-64h-128c-35.392 0-64 28.608-64 64h-256c-35.392 0-64 28.608-64 64s28.608 64 64 64h768c35.392 0 64-28.608 64-64s-28.608-64-64-64z"></path>
        </symbol>
        <symbol id="icon-edit" viewBox="0 0 1024 1024">
            <title>edit</title>
            <path class="path1" d="M946.116 248.245l-230.641-230.581c-23.552-23.552-61.681-23.552-85.173 0l-630.302 630.362v315.753h315.814l630.302-630.302c23.552-23.552 23.552-61.621 0-85.233v0zM271.059 843.309h-150.588v-150.588l2.59-2.59 150.588 150.588-2.59 2.59zM358.822 755.546l-150.588-150.588 454.355-454.355 150.588 150.588-454.355 454.355z"></path>
        </symbol>
        <symbol id="icon-phone" viewBox="0 0 1081 1024">
            <title>phone</title>
            <path class="path1" d="M821.909 161.703l-80.453 80.453c-22.245 22.245-22.245 58.208 0 80.453s58.208 22.245 80.453 0l80.453-80.453c22.245-22.245 22.245-58.208 0-80.453s-58.208-22.245-80.453 0z"></path>
            <path class="path2" d="M632.603 179.322l29.446-109.899c8.166-30.371-9.855-61.587-40.267-69.632-30.291-8.166-61.506 9.775-69.632 40.186l-29.446 109.899c-8.166 30.371 9.815 61.547 40.227 69.672 30.371 8.166 61.547-9.815 69.672-40.227z"></path>
            <path class="path3" d="M994.642 402.016l-109.899 29.446c-30.411 8.126-48.312 39.301-40.227 69.672 8.126 30.331 39.301 48.393 69.672 40.227l109.899-29.446c30.411-8.126 48.393-39.301 40.227-69.672-8.126-30.411-39.301-48.393-69.672-40.227z"></path>
            <path class="path4" d="M218.512 201.93l-160.906 160.906c-5.229 5.229-9.413 11.505-12.269 18.464-2.896 6.999-4.425 14.401-4.385 21.923-0.040 8.005 16.654 200.972 217.786 402.104s382.192 214.93 391.122 216.7c2.856 0.603 5.712 0.483 8.568 0.603 1.287 0.080 2.454 0.282 3.781 0.241 6.476-0.121 12.671-1.327 18.504-3.62 1.327-0.362 2.494-1.046 3.701-1.609 6.155-2.856 11.988-6.356 16.734-11.103l160.987-160.987c22.245-22.245 22.245-58.208 0-80.453l-160.906-160.906c-22.245-22.245-58.208-22.245-80.453 0l-40.227 40.227-160.906-160.906 40.227-40.227c22.245-22.245 22.245-58.208 0-80.453l-160.906-160.906c-22.245-22.245-58.208-22.245-80.453 0v0zM339.191 403.062l-40.227 40.227c-22.245 22.245-22.245 58.208 0 80.453l241.359 241.359c22.245 22.245 58.208 22.245 80.453 0l40.227-40.227 80.453 80.453-97.71 97.71c-57.363-16.734-143.649-17.257-304.555-178.163s-176.031-256.404-182.226-300.492l101.773-101.773 80.453 80.453z"></path>
        </symbol>
        <symbol id="icon-phone2" viewBox="0 0 32 32">
            <title>Header phone</title>
            <path d="M22 20c-2 2-2 4-4 4s-4-2-6-4-4-4-4-6 2-2 4-4-4-8-6-8-6 6-6 6c0 4 4.109 12.109 8 16s12 8 16 8c0 0 6-4 6-6s-6-8-8-6z"></path>
        </symbol>
        <symbol id="icon-spinner" viewBox="0 0 32 32">
            <title>spinner8</title>
            <defs>
                <linearGradient id="spinnerLinear" x1="0%" y1="0%" x2="100%" y2="0%">
                    <stop offset="0%"   stop-color="#6ea438"/>
                    <stop offset="100%" stop-color="#ffffff"/>
                </linearGradient>
            </defs>
            <path fill="url(#spinnerLinear)" d="M32 16c-0.040-2.089-0.493-4.172-1.331-6.077-0.834-1.906-2.046-3.633-3.533-5.060-1.486-1.428-3.248-2.557-5.156-3.302-1.906-0.748-3.956-1.105-5.981-1.061-2.025 0.040-4.042 0.48-5.885 1.292-1.845 0.809-3.517 1.983-4.898 3.424s-2.474 3.147-3.193 4.994c-0.722 1.846-1.067 3.829-1.023 5.79 0.040 1.961 0.468 3.911 1.254 5.694 0.784 1.784 1.921 3.401 3.316 4.736 1.394 1.336 3.046 2.391 4.832 3.085 1.785 0.697 3.701 1.028 5.598 0.985 1.897-0.040 3.78-0.455 5.502-1.216 1.723-0.759 3.285-1.859 4.574-3.208 1.29-1.348 2.308-2.945 2.977-4.67 0.407-1.046 0.684-2.137 0.829-3.244 0.039 0.002 0.078 0.004 0.118 0.004 1.105 0 2-0.895 2-2 0-0.056-0.003-0.112-0.007-0.167h0.007zM28.822 21.311c-0.733 1.663-1.796 3.169-3.099 4.412s-2.844 2.225-4.508 2.868c-1.663 0.646-3.447 0.952-5.215 0.909-1.769-0.041-3.519-0.429-5.119-1.14-1.602-0.708-3.053-1.734-4.25-2.991s-2.141-2.743-2.76-4.346c-0.621-1.603-0.913-3.319-0.871-5.024 0.041-1.705 0.417-3.388 1.102-4.928 0.683-1.541 1.672-2.937 2.883-4.088s2.642-2.058 4.184-2.652c1.542-0.596 3.192-0.875 4.832-0.833 1.641 0.041 3.257 0.404 4.736 1.064 1.48 0.658 2.82 1.609 3.926 2.774s1.975 2.54 2.543 4.021c0.57 1.481 0.837 3.064 0.794 4.641h0.007c-0.005 0.055-0.007 0.11-0.007 0.167 0 1.032 0.781 1.88 1.784 1.988-0.195 1.088-0.517 2.151-0.962 3.156z"></path>
        </symbol>
    </defs>
</svg>