<svg xmlns="http://www.w3.org/2000/svg" width="50" height="50" viewBox="0 0 50 50">
  <g id="jan-luxury" transform="translate(-40.317 -690.236)">
    <path id="Path_22" data-name="Path 22" d="M84.51,716.988l-5.6-6.764H56.237l-5.6,6.764,16.934,16.934Zm-12.282.548-4.687,13.652-4.688-13.652Zm-9.022-1.172,4.37-4.37,4.37,4.37Zm10.261,1.172H82.3L68.847,730.995Zm.948-1.172,4.41-4.41,3.648,4.41Zm-1.235-.422L68.633,711.4h9.093Zm-11.208,0L57.425,711.4h9.093Zm-1.235.422H52.678l3.648-4.41Zm.878,1.172L66.2,730.888,52.847,717.536Z" transform="translate(-2.258 -4.372)"/>
    <rect id="Rectangle_180" data-name="Rectangle 180" width="1.172" height="4.892" transform="translate(64.731 690.236)"/>
    <rect id="Rectangle_181" data-name="Rectangle 181" width="1.172" height="4.892" transform="translate(52.31 693.878) rotate(-30)"/>
    <rect id="Rectangle_182" data-name="Rectangle 182" width="1.172" height="4.892" transform="translate(43.373 703.243) rotate(-60.001)"/>
    <rect id="Rectangle_183" data-name="Rectangle 183" width="4.892" height="1.172" transform="translate(40.317 714.65)"/>
    <rect id="Rectangle_184" data-name="Rectangle 184" width="4.892" height="1.172" transform="matrix(0.866, -0.5, 0.5, 0.866, 43.374, 727.229)"/>
    <rect id="Rectangle_185" data-name="Rectangle 185" width="4.892" height="1.172" transform="translate(52.31 736.593) rotate(-59.995)"/>
    <rect id="Rectangle_186" data-name="Rectangle 186" width="1.172" height="4.892" transform="translate(64.731 735.344)"/>
    <rect id="Rectangle_187" data-name="Rectangle 187" width="1.172" height="4.892" transform="matrix(0.866, -0.5, 0.5, 0.866, 74.864, 732.943)"/>
    <rect id="Rectangle_188" data-name="Rectangle 188" width="1.172" height="4.892" transform="translate(82.438 725.797) rotate(-60)"/>
    <rect id="Rectangle_189" data-name="Rectangle 189" width="4.892" height="1.172" transform="translate(85.425 714.65)"/>
    <rect id="Rectangle_190" data-name="Rectangle 190" width="4.892" height="1.172" transform="matrix(0.866, -0.5, 0.5, 0.866, 82.439, 704.675)"/>
    <rect id="Rectangle_191" data-name="Rectangle 191" width="4.892" height="1.172" transform="translate(74.864 697.529) rotate(-59.995)"/>
  </g>
</svg>
