<svg xmlns="http://www.w3.org/2000/svg" width="54.44" height="50" viewBox="0 0 54.44 50">
  <g id="jan-customer" transform="translate(-832.767 -2556.235)">
    <path id="Path_16" data-name="Path 16" d="M886.965,2596.3a3.23,3.23,0,0,0-4.124-1.573l-11.52,4.754a2.608,2.608,0,0,0,.055-.509,2.843,2.843,0,0,0-2.874-2.737h-.019c-.017,0-.032,0-.049,0v0h-7.962l-6.07-2.641a10.223,10.223,0,0,0-4.043-.835h-4.67v-1.988H832.767v1.176h11.66v15.382H835.11v1.176h10.578v-1.987h3.529l11.1,3.45a7.8,7.8,0,0,0,5.636-.412l19.321-9.423A2.868,2.868,0,0,0,886.965,2596.3Zm-2.226,2.768-19.367,9.444a6.422,6.422,0,0,1-4.655.339l-11.2-3.48-3.831-.025v-11.412h4.67a8.871,8.871,0,0,1,3.509.725l6.325,2.751h8.29a1.568,1.568,0,1,1-.049,3.13h-9.7l-.11.009c-.887.146-2.566.854-2.566,2.486h1.261c0-.96,1.22-1.265,1.479-1.32H868.5v-.006a3.058,3.058,0,0,0,1.339-.343l.005.01,13.495-5.569a1.935,1.935,0,0,1,2.461.944A1.734,1.734,0,0,1,884.739,2599.072Z" transform="translate(0 -4.079)"/>
    <rect id="Rectangle_178" data-name="Rectangle 178" width="1.176" height="1.35" transform="translate(840.271 2599.787)"/>
    <rect id="Rectangle_179" data-name="Rectangle 179" width="1.176" height="1.35" transform="translate(837.796 2599.787)"/>
    <path id="Path_17" data-name="Path 17" d="M866.483,2583.887l.289.163.288-.163c.608-.344,14.905-8.531,14.905-19.129a8.518,8.518,0,0,0-15.194-5.3,8.518,8.518,0,0,0-15.194,5.3C851.579,2575.355,865.875,2583.543,866.483,2583.887Zm-6.382-26.476a7.321,7.321,0,0,1,6.176,3.379l.495.767.494-.767a7.343,7.343,0,0,1,13.524,3.968c0,9.118-11.99,16.715-14.018,17.935-2.029-1.218-14.018-8.809-14.018-17.935A7.355,7.355,0,0,1,860.1,2557.411Z" transform="translate(-0.377)"/>
    <path id="Path_18" data-name="Path 18" d="M856.138,2567.726l-1.174.071a9.468,9.468,0,0,0,.161,1.242l1.154-.227A8.288,8.288,0,0,1,856.138,2567.726Z" transform="translate(-3.501 -1.811)"/>
    <path id="Path_19" data-name="Path 19" d="M856.906,2571.113l-1.1.408c.137.372.3.752.48,1.131l1.06-.506C857.178,2571.8,857.031,2571.451,856.906,2571.113Z" transform="translate(-3.627 -2.34)"/>
    <path id="Path_20" data-name="Path 20" d="M857.51,2574.9c.21.341.434.678.669,1.01l.96-.678q-.333-.469-.63-.951Z" transform="translate(-3.893 -2.837)"/>
    <path id="Path_21" data-name="Path 21" d="M860.641,2577.2l-.9.75q.381.461.784.907l.874-.786Q861.009,2577.642,860.641,2577.2Z" transform="translate(-4.242 -3.294)"/>
  </g>
</svg>
