<svg width="0" height="0" version="1.1" xmlns="http://www.w3.org/2000/svg" xml:space="preserve" xmlns:xlink="http://www.w3.org/1999/xlink">
    <defs>
        <symbol viewBox="0 0 134 126" id="icon-modular-sofa"> 
            <g id="modular_sofa" transform="translate(23432.001 15417)"> <g id="Rectangle_8" transform="translate(-23297.131 -15375.172) rotate(180)"> <rect x="0" y="-37" width="44.9" height="41.8"/> <rect x="1" y="-36" fill="none" stroke="#FFFFFF" stroke-width="2" width="42.9" height="39.8"/> </g> <g id="Rectangle_9" transform="translate(-23342.131 -15375.172) rotate(180)"> <rect x="0" y="-37" width="44.9" height="41.8"/> <rect x="1" y="-36" fill="none" stroke="#FFFFFF" stroke-width="2" width="42.9" height="39.8"/> </g> <g id="Rectangle_35" transform="translate(-23387.131 -15375.172) rotate(180)"> <rect x="0" y="-37" width="44.9" height="41.8"/> <rect x="1" y="-36" fill="none" stroke="#FFFFFF" stroke-width="2" width="42.9" height="39.8"/> </g> <g id="Union_12" transform="translate(-23432 -15417)"> <path d="M7,78H1V38h7h36v6H8H7v1V78z"/> <path fill="#FFFFFF" d="M6,77V45v-2h2h35v-4H8H2v38H6 M8,79H0V37h8h37v8H8V79z"/> </g> <g id="Rectangle_121" transform="translate(-23342 -15417) rotate(90)"> <rect x="18.5" y="18.5" transform="matrix(2.535182e-06 1 -1 2.535182e-06 63.501 -18.499)" width="45" height="8"/> <rect x="19.5" y="19.5" transform="matrix(2.535182e-06 1 -1 2.535182e-06 63.501 -18.499)" fill="none" stroke="#FFFFFF" stroke-width="2" width="43" height="6"/> </g> <g id="Union_14" transform="translate(-23342 -15417)"> <path d="M44,78h-6V45v-1h-1H1v-6h43V78z"/> <path fill="#FFFFFF" d="M43,77V39H2v4h35h2v2v32H43 M45,79h-8V45H0v-8h45V79z"/> </g> </g>        
        </symbol>
        <symbol id="icon-modular-loveseat" viewBox="0 0 134 123.2">
            <g transform="translate(23428 15244)"> <g transform="translate(-23338 -15202) rotate(180)"> <rect x="-22" y="-29" width="44.9" height="41.8" fill="#897263"/> <rect x="-21" y="-28" width="42.9" height="39.8" fill="none" stroke="#fff" stroke-width="2"/> </g> <g transform="translate(-23383 -15202) rotate(180)"> <path d="M21.9,11.8H-21V-28h42.9V11.8z"/> <path d="M-20-27v37.8h40.9V-27H-20 M-22-29h44.9v41.8H-22V-29z" fill="#fff"/> </g> <g transform="translate(-45)"> <g transform="translate(-23293 -15202) rotate(180)"> <rect x="-22" y="-29" width="44.9" height="41.8"/> <rect x="-21" y="-28" width="42.9" height="39.8" fill="none" stroke="#fff" stroke-width="2"/> </g> <g transform="translate(-23338 -15244)"> <path d="m66 70h-6v-34h-37v-6h43v40z"/> <path d="m65 69v-38h-41v4h37v34h4m2 2h-8v-34h-37v-8h45v42z" fill="#fff"/> </g> </g> <g transform="translate(-23338 -15244) rotate(90)"> <rect transform="matrix(2.5352e-6 1 -1 2.5352e-6 33.5 -32.5)" x="10.5" y="-3.5" width="45" height="8"/> <rect transform="matrix(2.5352e-6 1 -1 2.5352e-6 33.5 -32.5)" x="11.5" y="-2.5" width="43" height="6" fill="none" stroke="#fff" stroke-width="2"/> </g> <g transform="translate(-23428 -15244)"> <path d="m29 70h-6v-40h43v6h-37v34z"/> <path d="m28 69v-34h37v-4h-41v38h4m2 2h-8v-42h45v8h-37v34z" fill="#fff"/> </g> </g>
        </symbol>
        <symbol id="icon-layout-l-shaped" viewBox="0 0 134 126">
            <g data-name="Rectangle 8" stroke="#fff" stroke-width="2"><path stroke="none" d="M134.869 41.828h-44.87V0h44.87z"/><path fill="none" d="M133.869 40.828h-42.87V1h42.87z"/></g><g data-name="Rectangle 9" stroke="#fff" stroke-width="2"><path stroke="none" d="M89.869 41.828h-44.87V0h44.87z"/><path fill="none" d="M88.869 40.828h-42.87V1h42.87z"/></g><g data-name="Rectangle 35" stroke="#fff" stroke-width="2"><path stroke="none" d="M44.869 41.828H-.001V0h44.87z"/><path fill="none" d="M43.869 40.828H.999V1h42.87z"/></g><g data-name="Rectangle 36" stroke="#fff" stroke-width="2"><path stroke="none" d="M44.869 83.828H-.001V42h44.87z"/><path fill="none" d="M43.869 82.828H.999V43h42.87z"/></g><g data-name="Rectangle 37" stroke="#fff" stroke-width="2"><path stroke="none" d="M44.869 125.828H-.001V84h44.87z"/><path fill="none" d="M43.869 124.828H.999V85h42.87z"/></g><g data-name="Union 12" class="layout-dark-line"><path d="M7 41H1V1h43v6H7v34z"/><path d="M6 40V6h37V2H2v38h4m2 2H0V0h45v8H8v34z" fill="#fff"/></g><g data-name="Rectangle 118" class="layout-dark-line" stroke="#fff" stroke-width="2"><path stroke="none" d="M0 42h8v42H0z"/><path fill="none" d="M1 43h6v40H1z"/></g><g data-name="Union 13" class="layout-dark-line"><path d="M44 125H1V85h6v34h37v6z"/><path d="M43 124v-4H6V86H2v38h41m2 2H0V84h8v34h37v8z" fill="#fff"/></g><g data-name="Rectangle 121" class="layout-dark-line" stroke="#fff" stroke-width="2"><path stroke="none" d="M90 0v8H45V0z"/><path fill="none" d="M89 1v6H46V1z"/></g><g data-name="Union 14" class="layout-dark-line"><path d="M134 41h-6V7H91V1h43v40z"/><path d="M133 40V2H92v4h37v34h4m2 2h-8V8H90V0h45v42z" fill="#fff"/></g>
        </symbol>
        <symbol id="icon-layout-large-u" viewBox="0 0 184 126">
            <g data-name="Rectangle 8" stroke="#fff" stroke-width="2"><path stroke="none" d="M46 0h45v42H46z"/><path fill="none" d="M47 1h43v40H47z"/></g><g data-name="Rectangle 9" stroke="#fff" stroke-width="2"><path stroke="none" d="M91 0h45v42H91z"/><path fill="none" d="M92 1h43v40H92z"/></g><g data-name="Rectangle 35" stroke="#fff" stroke-width="2"><path stroke="none" d="M136 0h45v42h-45z"/><path fill="none" d="M137 1h43v40h-43z"/></g><g data-name="Rectangle 36" stroke="#fff" stroke-width="2"><path stroke="none" d="M136 42h45v42h-45z"/><path fill="none" d="M137 43h43v40h-43z"/></g><g data-name="Rectangle 37" stroke="#fff" stroke-width="2"><path stroke="none" d="M136 84h45v42h-45z"/><path fill="none" d="M137 85h43v40h-43z"/></g><g data-name="Rectangle 39" stroke="#fff" stroke-width="2"><path stroke="none" d="M0 0h45v42H0z"/><path fill="none" d="M1 1h43v40H1z"/></g><g data-name="Rectangle 40" stroke="#fff" stroke-width="2"><path stroke="none" d="M0 42h45v42H0z"/><path fill="none" d="M1 43h43v40H1z"/></g><g data-name="Rectangle 41" stroke="#fff" stroke-width="2"><path stroke="none" d="M0 84h45v42H0z"/><path fill="none" d="M1 85h43v40H1z"/></g><g data-name="Union 1" class="layout-dark-line"><path d="M7 41H1V1h43v6H7v34z"/><path d="M6 40V6h37V2H2v38h4m2 2H0V0h45v8H8v34z" fill="#fff"/></g><g data-name="Rectangle 89" class="layout-dark-line" stroke="#fff" stroke-width="2"><path stroke="none" d="M0 42h8v42H0z"/><path fill="none" d="M1 43h6v40H1z"/></g><g data-name="Union 2" class="layout-dark-line"><path d="M44 125H1V85h6v34h37v6z"/><path d="M43 124v-4H6V86H2v38h41m2 2H0V84h8v34h37v8z" fill="#fff"/></g><g data-name="Rectangle 92" class="layout-dark-line" stroke="#fff" stroke-width="2"><path stroke="none" d="M91 0v8H46V0z"/><path fill="none" d="M90 1v6H47V1z"/></g><g data-name="Rectangle 93" class="layout-dark-line" stroke="#fff" stroke-width="2"><path stroke="none" d="M136 0v8H91V0z"/><path fill="none" d="M135 1v6H92V1z"/></g><g data-name="Union 3" class="layout-dark-line"><path d="M180 41h-6V7h-37V1h43v40z"/><path d="M179 40V2h-41v4h37v34h4m2 2h-8V8h-37V0h45v42z" fill="#fff"/></g><g data-name="Rectangle 96" class="layout-dark-line" stroke="#fff" stroke-width="2"><path stroke="none" d="M173 42h8v42h-8z"/><path fill="none" d="M174 43h6v40h-6z"/></g><g data-name="Union 4" class="layout-dark-line"><path d="M180 125h-43v-6h37V85h6v40z"/><path d="M179 124V86h-4v34h-37v4h41m2 2h-45v-8h37V84h8v42z" fill="#fff"/></g><g data-name="Rectangle 101" class="layout-dark-line" stroke="#fff" stroke-width="2"><path stroke="none" d="M0 42h8v42H0z"/><path fill="none" d="M1 43h6v40H1z"/></g>
        </symbol>
        <symbol id="icon-layout-short-corner" viewBox="0 0 134 126">
            <g data-name="Rectangle 8" stroke="#fff" stroke-width="2"><path stroke="none" d="M134.869 41.828h-44.87V0h44.87z"/><path fill="none" d="M133.869 40.828h-42.87V1h42.87z"/></g><g data-name="Rectangle 9" stroke="#fff" stroke-width="2"><path stroke="none" d="M89.869 41.828h-44.87V0h44.87z"/><path fill="none" d="M88.869 40.828h-42.87V1h42.87z"/></g><g data-name="Rectangle 35" stroke="#fff" stroke-width="2"><path stroke="none" d="M44.869 41.828H-.001V0h44.87z"/><path fill="none" d="M43.869 40.828H.999V1h42.87z"/></g><g data-name="Rectangle 36" stroke="#fff" stroke-width="2"><path stroke="none" d="M134.869 83.828h-44.87V42h44.87z"/><path fill="none" d="M133.869 82.828h-42.87V43h42.87z"/></g><g data-name="Union 9" class="layout-dark-line"><path d="M134 41h-6V7H91V1h43v40z"/><path d="M133 40V2H92v4h37v34h4m2 2h-8V8H90V0h45v42z" fill="#fff"/></g><g data-name="Rectangle 111" class="layout-dark-line" stroke="#fff" stroke-width="2"><path stroke="none" d="M90 0v8H45V0z"/><path fill="none" d="M89 1v6H46V1z"/></g><g data-name="Union 10" class="layout-dark-line"><path d="M7 41H1V1h43v6H7v34z"/><path d="M6 40V6h37V2H2v38h4m2 2H0V0h45v8H8v34z" fill="#fff"/></g><g data-name="Union 11" class="layout-dark-line"><path d="M134 83H91v-6h37V43h6v40z"/><path d="M133 82V44h-4v34H92v4h41m2 2H90v-8h37V42h8v42z" fill="#fff"/></g>
        </symbol>
        <symbol id="icon-layout-small-u" viewBox="0 0 134 126">
            <g data-name="Rectangle 8" stroke="#fff" stroke-width="2"><path stroke="none" d="M134.869 41.828h-44.87V0h44.87z"/><path fill="none" d="M133.869 40.828h-42.87V1h42.87z"/></g><g data-name="Rectangle 9" stroke="#fff" stroke-width="2"><path stroke="none" d="M89.869 41.828h-44.87V0h44.87z"/><path fill="none" d="M88.869 40.828h-42.87V1h42.87z"/></g><g data-name="Rectangle 35" stroke="#fff" stroke-width="2"><path stroke="none" d="M44.869 41.828H-.001V0h44.87z"/><path fill="none" d="M43.869 40.828H.999V1h42.87z"/></g><g data-name="Rectangle 36" stroke="#fff" stroke-width="2"><path stroke="none" d="M134.869 83.828h-44.87V42h44.87z"/><path fill="none" d="M133.869 82.828h-42.87V43h42.87z"/></g><g data-name="Rectangle 86" stroke="#fff" stroke-width="2"><path stroke="none" d="M44.869 83.828H-.001V42h44.87z"/><path fill="none" d="M43.869 82.828H.999V43h42.87z"/></g><g data-name="Union 5" class="layout-dark-line"><path d="M7 41H1V1h43v6H7v34z"/><path d="M6 40V6h37V2H2v38h4m2 2H0V0h45v8H8v34z" fill="#fff"/></g><g data-name="Union 6" class="layout-dark-line"><path d="M44 83H1V43h6v34h37v6z"/><path d="M43 82v-4H6V44H2v38h41m2 2H0V42h8v34h37v8z" fill="#fff"/></g><g data-name="Rectangle 104" class="layout-dark-line" stroke="#fff" stroke-width="2"><path stroke="none" d="M90 0v8H45V0z"/><path fill="none" d="M89 1v6H46V1z"/></g><g data-name="Union 7" class="layout-dark-line"><path d="M134 41h-6V7H91V1h43v40z"/><path d="M133 40V2H92v4h37v34h4m2 2h-8V8H90V0h45v42z" fill="#fff"/></g><g data-name="Union 8" class="layout-dark-line"><path d="M134 83H91v-6h37V43h6v40z"/><path d="M133 82V44h-4v34H92v4h41m2 2H90v-8h37V42h8v42z" fill="#fff"/></g>
        </symbol>
    </defs>
</svg>


