<svg version="1.1" viewBox="0 0 296 60" xmlns="http://www.w3.org/2000/svg" xmlns:xlink="http://www.w3.org/1999/xlink">
<title>60_296-blue</title>
<defs><polygon id="b" points="29.708 39.178 95.708 39.178 95.708 12.843 29.708 12.843"/></defs><g fill="none" fill-rule="evenodd"><g transform="translate(-.5 -.5)"><g transform="translate(.52344 .44727)" fill="#0FA0EA" stroke="#0FA0EA" stroke-width="2"><rect x="1" y="1" width="294" height="58" rx="8"/></g>
<text fill="#FFFFFF" font-family="Calibre-Semibold, Calibre" font-size="22" font-weight="500"><tspan x="105.59668" y="38.8670156">Monthly payments</tspan></text>
<path d="m34.036 36.91c-0.815 0-1.224-0.402-1.224-1.063 0-1.227 1.373-1.646 3.878-1.913 0 1.641-1.109 2.976-2.654 2.976m1.08-9.233c-1.79 0-3.85 0.842-4.968 1.734l1.021 2.149c0.897-0.82 2.347-1.522 3.655-1.522 1.242 0 1.928 0.416 1.928 1.253 0 0.563-0.454 0.848-1.314 0.959-3.211 0.417-5.73 1.304-5.73 3.779 0 1.962 1.397 3.149 3.58 3.149 1.557 0 2.944-0.866 3.603-2.008v1.688h2.904v-7.074c0-2.921-2.031-4.107-4.679-4.107" fill="#fff"/>
<path d="m64.266 27.996v10.862h3.107v-5.234c0-2.487 1.506-3.218 2.556-3.218 0.411 0 0.963 0.119 1.328 0.394l0.566-2.872c-0.479-0.206-0.981-0.251-1.392-0.251-1.598 0-2.602 0.707-3.264 2.144v-1.825h-2.901z" fill="#fff"/>
<path d="m86.229 27.677c-1.643 0-2.872 0.972-3.511 1.907-0.593-1.21-1.851-1.907-3.357-1.907-1.643 0-2.78 0.912-3.305 1.962v-1.643h-2.995v10.863h3.109v-5.591c0-2.008 1.051-2.971 2.033-2.971 0.888 0 1.704 0.574 1.704 2.058v6.504h3.105v-5.591c0-2.031 1.026-2.971 2.053-2.971 0.822 0 1.688 0.598 1.688 2.035v6.527h3.104v-7.508c0-2.442-1.643-3.674-3.628-3.674" fill="#fff"/>
<path d="m56.703 27.996h-2.815v-1.104c0-1.438 0.82-1.849 1.528-1.849 0.782 0 1.391 0.347 1.391 0.347l0.958-2.191s-0.971-0.635-2.737-0.635c-1.986 0-4.245 1.119-4.245 4.633v0.799h-4.712v-1.104c0-1.438 0.82-1.849 1.528-1.849 0.402 0 0.942 0.093 1.391 0.347l0.958-2.191c-0.572-0.335-1.491-0.635-2.737-0.635-1.986 0-4.245 1.119-4.245 4.633v0.799h-1.803v2.396h1.803v8.466h3.105v-8.466h4.712v8.466h3.105v-8.466h2.815v-2.396z" fill="#fff"/>
<mask id="a" fill="white"><use xlink:href="#b"/></mask><polygon points="58.556 38.858 61.658 38.858 61.658 27.996 58.556 27.996" fill="#fff" mask="url(#a)"/><path d="m76.652 12.843c-8.387 0-15.861 5.821-17.982 13.306h3.039c1.773-5.573 7.787-10.466 14.943-10.466 8.699 0 16.215 6.622 16.215 16.931 0 2.314-0.299 4.402-0.867 6.245h2.949l0.029-0.102c0.484-1.901 0.73-3.968 0.73-6.143 0-11.497-8.378-19.771-19.056-19.771" fill="#fff" mask="url(#a)"/></g></g>
</svg>
