<svg version="1.1" viewBox="0 0 296 60" xmlns="http://www.w3.org/2000/svg" xmlns:xlink="http://www.w3.org/1999/xlink">
<title>60_296-blue</title>
<defs><polygon id="b" points="0.65304 25.137 61.57 25.137 61.57 0.83069 0.65304 0.83069"/></defs><g fill="none" fill-rule="evenodd"><g transform="translate(-.5 -.5)"><g transform="translate(.52344 .44727)" fill="#0FA0EA" stroke="#0FA0EA" stroke-width="2">
<rect x="1" y="1" width="294" height="58" rx="8"/></g><g transform="translate(49 13)"><g fill="#fff">
<path d="m0.638 18.126c0-4.136 2.684-6.974 6.292-6.974 3.19 0 5.148 1.87 5.654 4.576h-2.794c-0.462-1.232-1.298-2.068-2.86-2.068-2.156 0-3.432 1.892-3.432 4.466 0 2.552 1.276 4.466 3.432 4.466 1.562 0 2.398-0.836 2.86-2.09h2.794c-0.506 2.728-2.464 4.598-5.654 4.598-3.608 0-6.292-2.838-6.292-6.974zm13.728 6.754v-14.3h2.728v5.368c0.528-0.616 1.496-1.122 2.64-1.122 2.222 0 3.476 1.452 3.476 3.63v6.424h-2.728v-5.852c0-1.034-0.528-1.738-1.606-1.738-0.836 0-1.562 0.506-1.782 1.364v6.226h-2.728zm17.094-3.212h2.53c-0.352 2.09-1.892 3.432-4.356 3.432-2.86 0-4.774-2.09-4.774-5.126 0-2.97 1.98-5.148 4.73-5.148 2.882 0 4.466 2.002 4.466 4.884v0.836h-6.556c0.088 1.474 0.924 2.354 2.134 2.354 0.924 0 1.606-0.396 1.826-1.232zm-1.848-4.62c-1.056 0-1.804 0.638-2.046 1.848h3.806c-0.022-1.034-0.638-1.848-1.76-1.848zm5.654 2.926c0-3.058 1.936-5.148 4.73-5.148 2.464 0 4.026 1.452 4.312 3.542h-2.684c-0.154-0.748-0.748-1.21-1.628-1.21-1.254 0-2.024 1.144-2.024 2.816 0 1.65 0.77 2.794 2.024 2.794 0.88 0 1.474-0.462 1.628-1.21h2.684c-0.286 2.112-1.848 3.542-4.312 3.542-2.794 0-4.73-2.09-4.73-5.126zm17.116 4.906l-2.882-3.96-0.792 0.858v3.102h-2.728v-14.3h2.728v8.118l3.366-3.652h3.388l-3.982 4.18 4.136 5.654h-3.234zm18.26-4.906c0 3.014-1.958 5.126-4.818 5.126s-4.818-2.112-4.818-5.126c0-3.036 1.958-5.148 4.818-5.148s4.818 2.112 4.818 5.148zm-2.706 0c0-1.65-0.748-2.838-2.112-2.838s-2.112 1.188-2.112 2.838c0 1.628 0.748 2.816 2.112 2.816s2.112-1.188 2.112-2.816zm13.156-4.928v9.834h-2.728v-0.902c-0.55 0.616-1.496 1.122-2.64 1.122-2.2 0-3.454-1.452-3.454-3.63v-6.424h2.728v5.874c0 1.034 0.506 1.738 1.584 1.738 0.836 0 1.562-0.506 1.76-1.364v-6.248h2.75zm2.948 6.864v-4.664h-1.496v-2.2h1.496v-2.662h2.706v2.662h2.156v2.2h-2.156v4.312c0 0.77 0.418 1.122 1.122 1.122 0.418 0 0.88-0.132 1.188-0.33v2.42c-0.374 0.198-1.034 0.308-1.76 0.308-2.002 0-3.256-0.99-3.256-3.168zm18.942-6.864l1.628 6.27 1.76-6.27h2.64l-2.992 9.834h-2.508l-1.606-6.028-1.606 6.028h-2.508l-2.992-9.834h2.728l1.76 6.27 1.606-6.27h2.09zm10.23 0v9.834h-2.728v-9.834h2.728zm0.242-2.838c0 0.924-0.748 1.562-1.606 1.562-0.88 0-1.628-0.638-1.628-1.562 0-0.902 0.748-1.562 1.628-1.562 0.858 0 1.606 0.66 1.606 1.562zm2.728 9.702v-4.664h-1.496v-2.2h1.496v-2.662h2.706v2.662h2.156v2.2h-2.156v4.312c0 0.77 0.418 1.122 1.122 1.122 0.418 0 0.88-0.132 1.188-0.33v2.42c-0.374 0.198-1.034 0.308-1.76 0.308-2.002 0-3.256-0.99-3.256-3.168zm6.996 2.97v-14.3h2.728v5.368c0.528-0.616 1.496-1.122 2.64-1.122 2.222 0 3.476 1.452 3.476 3.63v6.424h-2.728v-5.852c0-1.034-0.528-1.738-1.606-1.738-0.836 0-1.562 0.506-1.782 1.364v6.226h-2.728z"/>
<g transform="translate(138 .15)"><path d="m4.648 22.992c-0.75223 0-1.1297-0.37104-1.1297-0.98113 0-1.1325 1.2673-1.5192 3.5793-1.7657 0 1.5146-1.0236 2.7468-2.4496 2.7468m0.99682-8.5219c-1.6521 0-3.5535 0.77715-4.5854 1.6005l0.94237 1.9835c0.82792-0.75685 2.1662-1.4048 3.3735-1.4048 1.1463 0 1.7795 0.38396 1.7795 1.1565 0 0.51964-0.41904 0.78269-1.2128 0.88514-2.9637 0.38488-5.2887 1.2036-5.2887 3.488 0 1.8109 1.2894 2.9065 3.3043 2.9065 1.4371 0 2.7173-0.79931 3.3255-1.8534v1.558h2.6803v-6.5292c0-2.696-1.8746-3.7907-4.3186-3.7907"/>
<path d="m32.55 14.764v10.025h2.8677v-4.8309c0-2.2955 1.39-2.9702 2.3591-2.9702 0.37935 0 0.88883 0.10984 1.2257 0.36366l0.52241-2.6508c-0.44211-0.19013-0.90545-0.23167-1.2848-0.23167-1.4749 0-2.4016 0.65255-3.0126 1.9789v-1.6844h-2.6776z"/>
<path d="m52.821 14.469c-1.5165 0-2.6508 0.89714-3.2406 1.7601-0.54733-1.1168-1.7084-1.7601-3.0985-1.7601-1.5165 0-2.5659 0.84176-3.0505 1.8109v-1.5165h-2.7643v10.026h2.8696v-5.1604c0-1.8534 0.97006-2.7422 1.8764-2.7422 0.81961 0 1.5728 0.52979 1.5728 1.8995v6.0031h2.8659v-5.1604c0-1.8746 0.94698-2.7422 1.8949-2.7422 0.75869 0 1.558 0.55195 1.558 1.8783v6.0243h2.8649v-6.9298c0-2.2539-1.5165-3.391-3.3486-3.391"/>
<path d="m25.569 14.764h-2.5982v-1.019c0-1.3273 0.75685-1.7066 1.4103-1.7066 0.72177 0 1.2839 0.32028 1.2839 0.32028l0.88422-2.0223s-0.89622-0.5861-2.5262-0.5861c-1.833 0-3.9181 1.0328-3.9181 4.2762v0.73747h-4.3491v-1.019c0-1.3273 0.75685-1.7066 1.4103-1.7066 0.37104 0 0.86945 0.085838 1.2839 0.32028l0.88422-2.0223c-0.52795-0.3092-1.3762-0.5861-2.5262-0.5861-1.833 0-3.9181 1.0328-3.9181 4.2762v0.73747h-1.6641v2.2115h1.6641v7.814h2.8659v-7.814h4.3491v7.814h2.8659v-7.814h2.5982v-2.2115z"/>
<mask id="a" fill="white"><use xlink:href="#b"/></mask><polygon points="27.279 24.79 30.142 24.79 30.142 14.764 27.279 14.764" mask="url(#a)"/><path d="m43.982 0.77775c-7.7411 0-14.639 5.3727-16.597 12.281h2.805c1.6365-5.1438 7.1873-9.66 13.792-9.66 8.029 0 14.966 6.112 14.966 15.627 0 2.1358-0.27597 4.063-0.80023 5.764h2.7219l0.026767-0.094144c0.44672-1.7546 0.67378-3.6624 0.67378-5.6699 0-10.612-7.7328-18.248-17.588-18.248" mask="url(#a)"/>
</g></g></g></g></g>
</svg>
