<svg version="1.1" viewBox="0 0 420 167" xmlns="http://www.w3.org/2000/svg" xmlns:xlink="http://www.w3.org/1999/xlink">
    <defs><polygon id="c" points="0.0027833 0.35719 63.964 0.35719 63.964 73.294 0.0027833 73.294"/><polygon id="b" points="0 167 418.53 167 418.53 0 0 0"/></defs>
    <g fill="none" fill-rule="evenodd"><rect width="420" height="167" fill="none"/><g transform="translate(0 93.706)"><mask id="d" fill="white"><use xlink:href="#c"/></mask>
    <path d="m27.446 58.909c-5.177 0-7.7562-2.5421-7.7562-6.7449 0-7.7748 8.7026-10.438 24.586-12.117 0 10.4-7.0326 18.862-16.83 18.862m6.847-58.552c-11.347 0-24.41 5.3533-31.498 11.003l6.4759 13.629c5.6873-5.2048 14.882-9.6489 23.176-9.6489 7.8768 0 12.228 2.6349 12.228 7.9325 0 3.5812-2.8854 5.3811-8.3407 6.0862-20.355 2.6534-36.332 8.2665-36.332 23.964 0 12.442 8.8603 19.975 22.703 19.975 9.8716 0 18.667-5.4924 22.851-12.738v10.707h18.407v-44.858c0-18.528-12.878-26.052-29.67-26.052" fill="#060809" mask="url(#d)"/></g>
    <path d="m219.14 96.087v68.887h19.706v-33.187c0-15.782 9.5468-20.411 16.208-20.411 2.5978 0 6.1048 0.7515 8.4242 2.4864l3.5905-18.212c-3.0431-1.2989-6.2254-1.5865-8.8324-1.5865-10.131 0-16.496 4.4904-20.699 13.601v-11.579h-18.398z" fill="#060809"/>
    <path d="m358.42 94.066c-10.419 0-18.203 6.1604-22.257 12.098-3.7668-7.6727-11.746-12.098-21.292-12.098-10.419 0-17.628 5.7893-20.958 12.441v-10.419h-18.992v68.888h19.715v-35.46c0-12.738 6.6614-18.834 12.887-18.834 5.6316 0 10.809 3.6462 10.809 13.045v41.249h19.687v-35.46c0-12.878 6.513-18.834 13.026-18.834 5.2048 0 10.697 3.7853 10.697 12.905v41.388h19.687v-47.614c0-15.485-10.419-23.296-23.009-23.296" fill="#060809"/>
    <path d="m171.18 96.087h-17.85v-7.0047c0-9.1108 5.2048-11.718 9.6953-11.718 4.9543 0 8.8139 2.1988 8.8139 2.1988l6.0769-13.889s-6.1604-4.0266-17.359-4.0266c-12.59 0-26.915 7.0975-26.915 29.373v5.0657h-29.884v-7.0047c0-9.1108 5.2048-11.718 9.686-11.718 2.5514 0 5.9842 0.59378 8.8232 2.1988l6.0769-13.889c-3.6276-2.1339-9.4541-4.0266-17.359-4.0266-12.59 0-26.915 7.0975-26.915 29.373v5.0657h-11.43v15.197h11.43v53.69h19.687v-53.69h29.884v53.69h19.687v-53.69h17.85v-15.197z" fill="#060809"/>
    <mask id="a" fill="white"><use xlink:href="#b"/></mask>
    <polygon points="182.94 164.98 202.61 164.98 202.61 96.09 182.94 96.09" fill="#060809" mask="url(#a)"/>
    <path d="m297.69 0.0027833c-53.18 0-100.58 36.916-114.03 84.381h19.279c11.235-35.348 49.376-66.373 94.754-66.373 55.156 0 102.83 41.991 102.83 107.36 0 14.677-1.9019 27.908-5.5017 39.598h18.704l0.18556-0.64017c3.0617-12.061 4.6203-25.161 4.6203-38.957 0-72.905-53.125-125.37-120.83-125.37" fill="#0FA0EA" mask="url(#a)"/></g>
</svg>
