<svg id="Layer_1" data-name="Layer 1" xmlns="http://www.w3.org/2000/svg" viewBox="0 0 405.38 85.54">
    <defs>
        <style>
            .cls-1{
                fill:#655130;
            }

            .cls-2{
                fill:#6ea141;
            }
        </style>
    </defs>
    <title>Authenteak-outdoor-living-logo</title>
    <path class="cls-1" d="M91.43,322.81A12.11,12.11,0,0,1,95,318.39a15.23,15.23,0,0,1,5.29-2.53A25.55,25.55,0,0,1,107,315a29.51,29.51,0,0,1,5.57.53,13.42,13.42,0,0,1,5,2,11,11,0,0,1,3.6,4.13,15,15,0,0,1,1.39,6.92v22.45q0,3.12,3,3.12a4,4,0,0,0,1.64-.33v4.35q-.91.16-1.6.24a15.19,15.19,0,0,1-1.76.09,7.67,7.67,0,0,1-3.13-.53,4.29,4.29,0,0,1-1.82-1.51,5.66,5.66,0,0,1-.85-2.34,20.44,20.44,0,0,1-.2-3h-.16a35.85,35.85,0,0,1-2.83,3.66,14.13,14.13,0,0,1-3.2,2.66,14.44,14.44,0,0,1-4,1.64,22.07,22.07,0,0,1-5.38.58,21,21,0,0,1-5.53-.7,12.59,12.59,0,0,1-4.52-2.21,10.65,10.65,0,0,1-3-3.85,12.87,12.87,0,0,1-1.1-5.54,11,11,0,0,1,2-6.92,12.4,12.4,0,0,1,5.2-3.8,29.3,29.3,0,0,1,7.29-1.84q4.05-.54,8.24-1c1.09-.1,2-.25,2.87-.41a4.86,4.86,0,0,0,2-.86,4,4,0,0,0,1.27-1.68,7.25,7.25,0,0,0,.45-2.79,9.49,9.49,0,0,0-.86-4.29,6.77,6.77,0,0,0-2.39-2.66,9.68,9.68,0,0,0-3.53-1.35,24,24,0,0,0-4.31-.37,13.12,13.12,0,0,0-8,2.33Q95.17,324,95,329.2H89.87a17,17,0,0,1,1.56-6.39m25.82,12.63a3,3,0,0,1-1.89,1.31,17.4,17.4,0,0,1-2.45.56c-2.19.39-4.45.73-6.76,1a37.36,37.36,0,0,0-6.36,1.35,12.49,12.49,0,0,0-4.71,2.58,6.18,6.18,0,0,0-1.84,4.8,7.45,7.45,0,0,0,.78,3.48,8.46,8.46,0,0,0,2.09,2.62,9,9,0,0,0,3,1.68,11.2,11.2,0,0,0,3.53.57,17.61,17.61,0,0,0,5.65-.9A13.91,13.91,0,0,0,113,351.9a12.47,12.47,0,0,0,4.39-9.76v-6.71Z" transform="translate(-88.09 -300.06)"></path><path class="cls-1" d="M162,358.53l0-7.62h-.14a14.69,14.69,0,0,1-5.94,6.51,17,17,0,0,1-8.65,2.26,18.6,18.6,0,0,1-6.84-1.12,11.34,11.34,0,0,1-4.58-3.14,12.79,12.79,0,0,1-2.59-5,25.51,25.51,0,0,1-.81-6.72V316.26h5.13v27.53q.17,5.74,2.66,8.69t8.66,2.95a10.91,10.91,0,0,0,5.73-1.43,12.24,12.24,0,0,0,3.93-3.81,17.29,17.29,0,0,0,2.3-5.45,26.76,26.76,0,0,0,.74-6.26V316.26h5.14v42.27Z" transform="translate(-88.09 -300.06)"></path><path class="cls-1" d="M192.92,316.26v4.34h-8.59v28.54a9.38,9.38,0,0,0,.69,4c.47,1,1.62,1.5,3.48,1.6a36.26,36.26,0,0,0,4.42-.27v4.34q-1.15,0-2.29.1c-.77.07-1.54.09-2.29.09q-5.16,0-7.21-2t-2-7.42l0-28.94h-7.38v-4.34h7.38V303.52h5.14v12.74Z" transform="translate(-88.09 -300.06)"></path><path class="cls-1" d="M205.05,300.06v23.5h.18a12.43,12.43,0,0,1,5.24-6.19,15.41,15.41,0,0,1,8.26-2.34,20.8,20.8,0,0,1,7.41,1.15,11.52,11.52,0,0,1,4.79,3.24,11.93,11.93,0,0,1,2.54,5.11,28.93,28.93,0,0,1,.74,6.8v27.2h-5.14V332.15a24.58,24.58,0,0,0-.49-5,10.67,10.67,0,0,0-1.72-4.05,8.55,8.55,0,0,0-3.32-2.72,12.33,12.33,0,0,0-5.2-1,13.14,13.14,0,0,0-5.53,1.11,12,12,0,0,0-4.1,3,14.12,14.12,0,0,0-2.62,4.6,18.67,18.67,0,0,0-1,5.77v24.66h-5.14V300.06Z" transform="translate(-88.09 -300.06)"></path><path class="cls-1" d="M245.78,344.56a15.75,15.75,0,0,0,2.49,5.36,14,14,0,0,0,4.35,3.94,12.11,12.11,0,0,0,6.31,1.56q5.65,0,8.85-2.95a15.57,15.57,0,0,0,4.43-7.87h5.13q-1.64,7.2-6,11.14t-12.39,3.93a19.55,19.55,0,0,1-8.63-1.77,15.81,15.81,0,0,1-5.94-4.83A20.84,20.84,0,0,1,241,346a32.19,32.19,0,0,1-1.1-8.56,30.6,30.6,0,0,1,1.1-8.2,22,22,0,0,1,3.4-7.16,17.08,17.08,0,0,1,5.93-5.08,18.3,18.3,0,0,1,8.63-1.93,16.73,16.73,0,0,1,14.53,7.41,22.4,22.4,0,0,1,3.23,7.62,33.74,33.74,0,0,1,.82,8.71H245a22.86,22.86,0,0,0,.78,5.79m25.57-15.79a15.68,15.68,0,0,0-2.67-4.78,13.17,13.17,0,0,0-4.18-3.35,11.91,11.91,0,0,0-5.57-1.27,12.09,12.09,0,0,0-5.65,1.27,13.27,13.27,0,0,0-4.19,3.35,16.64,16.64,0,0,0-2.74,4.83,23.28,23.28,0,0,0-1.36,5.61h27.38a19,19,0,0,0-1-5.66" transform="translate(-88.09 -300.06)"></path><path class="cls-1" d="M289.17,316.25v7.3h.18a12.28,12.28,0,0,1,5.23-6.19,15.41,15.41,0,0,1,8.26-2.34,20.77,20.77,0,0,1,7.4,1.15,11.57,11.57,0,0,1,4.79,3.24,12,12,0,0,1,2.53,5.11,29,29,0,0,1,.74,6.8v27.2h-5.14V332.15a24.36,24.36,0,0,0-.5-5,10.86,10.86,0,0,0-1.72-4,8.6,8.6,0,0,0-3.33-2.72,12.3,12.3,0,0,0-5.2-1,13.11,13.11,0,0,0-5.53,1.11,11.92,11.92,0,0,0-4.1,3,13.86,13.86,0,0,0-2.62,4.6,18.28,18.28,0,0,0-1,5.77v24.66H284V316.25Z" transform="translate(-88.09 -300.06)"></path><polygon class="cls-2" points="272.26 15.33 272.26 18.87 255.56 18.87 255.56 58.47 251.04 58.47 251.04 18.87 234.4 18.87 234.4 15.33 272.26 15.33"></polygon><polygon class="cls-2" points="272.26 15.33 272.26 18.87 255.56 18.87 255.56 58.47 251.04 58.47 251.04 18.87 234.4 18.87 234.4 15.33 272.26 15.33"></polygon><polygon class="cls-2" points="312.18 15.33 312.18 18.87 283.69 18.87 283.69 34.37 310.38 34.37 310.38 37.91 283.69 37.91 283.69 54.92 312.52 54.92 312.52 58.47 279.17 58.47 279.17 15.33 312.18 15.33"></polygon><polygon class="cls-2" points="312.18 15.33 312.18 18.87 283.69 18.87 283.69 34.37 310.38 34.37 310.38 37.91 283.69 37.91 283.69 54.92 312.52 54.92 312.52 58.47 279.17 58.47 279.17 15.33 312.18 15.33"></polygon><path class="cls-2" d="M428.39,315.39l18.78,43.14h-4.9l-5.84-13.38H414.65l-5.77,13.38h-4.83l19.25-43.14Zm6.5,26.21-9.25-22.11-9.59,22.11Z" transform="translate(-88.09 -300.06)"></path><path class="cls-2" d="M428.39,315.39l18.78,43.14h-4.9l-5.84-13.38H414.65l-5.77,13.38h-4.83l19.25-43.14Zm6.5,26.21-9.25-22.11-9.59,22.11Z" transform="translate(-88.09 -300.06)"></path><polygon class="cls-2" points="370.36 15.33 370.36 38.52 398.2 15.33 404.37 15.33 382.98 33.15 405.38 58.47 399.47 58.47 379.55 35.99 370.36 43.66 370.36 58.47 365.85 58.47 365.85 15.33 370.36 15.33"></polygon><polygon class="cls-2" points="370.36 15.33 370.36 38.52 398.2 15.33 404.37 15.33 382.98 33.15 405.38 58.47 399.47 58.47 379.55 35.99 370.36 43.66 370.36 58.47 365.85 58.47 365.85 15.33 370.36 15.33"></polygon><path class="cls-1" d="M364.63,367.2a7.26,7.26,0,0,1,5.32,2.12,7.36,7.36,0,0,1-5.21,12.58,7.17,7.17,0,0,1-5.26-2.13,7,7,0,0,1-2.14-5.16,7.46,7.46,0,0,1,1-3.74,7.21,7.21,0,0,1,6.31-3.67Zm.06,1.36a5.76,5.76,0,0,0-2.95.81,5.83,5.83,0,0,0-2.17,2.18,6.07,6.07,0,0,0-.78,3.06,5.89,5.89,0,0,0,5.9,5.93,6,6,0,0,0,3-.79,5.67,5.67,0,0,0,2.16-2.16,6.08,6.08,0,0,0,.78-3,5.93,5.93,0,0,0-.78-3,5.81,5.81,0,0,0-2.19-2.16A5.92,5.92,0,0,0,364.69,368.56Z" transform="translate(-88.09 -300.06)"></path><path class="cls-1" d="M374.51,371.19h1.33V376a10.26,10.26,0,0,0,.19,2.44,2.72,2.72,0,0,0,1.09,1.5,3.31,3.31,0,0,0,1.92.55,3.23,3.23,0,0,0,1.89-.54,2.75,2.75,0,0,0,1.07-1.41,10,10,0,0,0,.2-2.54v-4.83h1.36v5.08a8,8,0,0,1-.5,3.23,3.8,3.8,0,0,1-1.5,1.7,4.75,4.75,0,0,1-2.52.61,4.8,4.8,0,0,1-2.53-.61,3.79,3.79,0,0,1-1.51-1.71,8.35,8.35,0,0,1-.5-3.31Z" transform="translate(-88.09 -300.06)"></path><path class="cls-1" d="M387.69,367.35H389v3.85h2.11v1.15H389v9.2h-1.33v-9.2h-1.82v-1.15h1.82Z" transform="translate(-88.09 -300.06)"></path><path class="cls-1" d="M403.47,367.2v14.35h-1.31v-1.78a5.72,5.72,0,0,1-1.88,1.53,5.25,5.25,0,0,1-6-1.08,5.35,5.35,0,0,1-1.56-3.88,5.25,5.25,0,0,1,1.57-3.83,5.12,5.12,0,0,1,3.78-1.59,4.89,4.89,0,0,1,2.31.54,5.27,5.27,0,0,1,1.81,1.63v-5.9Zm-5.33,5a4,4,0,0,0-3.55,2.08,4.2,4.2,0,0,0,0,4.18,4.07,4.07,0,0,0,1.51,1.55,3.93,3.93,0,0,0,2,.56,4.17,4.17,0,0,0,2.07-.55,3.85,3.85,0,0,0,1.51-1.49,4.25,4.25,0,0,0,.53-2.12,4.12,4.12,0,0,0-1.18-3A3.92,3.92,0,0,0,398.15,372.21Z" transform="translate(-88.09 -300.06)"></path><path class="cls-1" d="M411.39,370.93a5.13,5.13,0,0,1,4,1.73,5.56,5.56,0,0,1-.08,7.53,5.47,5.47,0,0,1-7.78,0,5.55,5.55,0,0,1-.08-7.52A5.13,5.13,0,0,1,411.39,370.93Zm0,1.3a3.85,3.85,0,0,0-2.86,1.23,4.11,4.11,0,0,0-1.19,3,4.22,4.22,0,0,0,.54,2.09,3.86,3.86,0,0,0,1.47,1.5,4.18,4.18,0,0,0,4.07,0,3.85,3.85,0,0,0,1.47-1.5,4.21,4.21,0,0,0,.54-2.09,4.1,4.1,0,0,0-1.2-3A3.85,3.85,0,0,0,411.39,372.23Z" transform="translate(-88.09 -300.06)"></path><path class="cls-1" d="M424.15,370.93a5.13,5.13,0,0,1,4,1.73,5.56,5.56,0,0,1-.08,7.53,5.47,5.47,0,0,1-7.78,0,5.55,5.55,0,0,1-.08-7.52A5.12,5.12,0,0,1,424.15,370.93Zm0,1.3a3.85,3.85,0,0,0-2.86,1.23,4.11,4.11,0,0,0-1.19,3,4.22,4.22,0,0,0,.55,2.09,3.86,3.86,0,0,0,1.47,1.5,4.18,4.18,0,0,0,4.07,0,3.85,3.85,0,0,0,1.47-1.5,4.21,4.21,0,0,0,.54-2.09,4.09,4.09,0,0,0-1.2-3A3.85,3.85,0,0,0,424.15,372.23Z" transform="translate(-88.09 -300.06)"></path><path class="cls-1" d="M431.51,371.19h1.36v1.51a4.8,4.8,0,0,1,1.29-1.34,2.53,2.53,0,0,1,1.41-.44,2.43,2.43,0,0,1,1.18.35L436,372.4a1.84,1.84,0,0,0-.7-.18,1.93,1.93,0,0,0-1.29.55,3.45,3.45,0,0,0-.94,1.7,16.19,16.19,0,0,0-.25,3.58v3.5h-1.36Z" transform="translate(-88.09 -300.06)"></path><path class="cls-1" d="M443.49,367.55h1.4V380.2h5.39v1.35h-6.79Z" transform="translate(-88.09 -300.06)"></path><path class="cls-1" d="M452.74,366.93a1.06,1.06,0,0,1,.78.32,1.07,1.07,0,0,1,.32.78,1.1,1.1,0,0,1-1.1,1.09,1.1,1.1,0,0,1-1.09-1.09,1.06,1.06,0,0,1,.32-.78A1,1,0,0,1,452.74,366.93Zm-.66,4.26h1.33v10.35h-1.33Z" transform="translate(-88.09 -300.06)"></path><path class="cls-1" d="M455.2,371.19h1.42l3.48,7.55,3.43-7.55H465l-4.74,10.35H460Z" transform="translate(-88.09 -300.06)"></path><path class="cls-1" d="M467.44,366.93a1.1,1.1,0,1,1,0,2.2,1.1,1.1,0,0,1-1.09-1.09,1.06,1.06,0,0,1,.32-.78A1,1,0,0,1,467.44,366.93Zm-.66,4.26h1.33v10.35h-1.33Z" transform="translate(-88.09 -300.06)"></path><path class="cls-1" d="M470.88,371.19h1.33V373a5.58,5.58,0,0,1,1.77-1.59,4.35,4.35,0,0,1,2.11-.53,3.67,3.67,0,0,1,2.06.59,3.52,3.52,0,0,1,1.33,1.59,8.41,8.41,0,0,1,.43,3.11v5.33h-1.33v-4.94a12.2,12.2,0,0,0-.15-2.39,2.62,2.62,0,0,0-.89-1.55,2.68,2.68,0,0,0-1.71-.52,3.29,3.29,0,0,0-2.17.8,3.75,3.75,0,0,0-1.26,2,13.74,13.74,0,0,0-.19,2.82v3.8h-1.33Z" transform="translate(-88.09 -300.06)"></path><path class="cls-1" d="M491.7,371.19H493v8.25a9.73,9.73,0,0,1-.38,3.19,4.14,4.14,0,0,1-1.82,2.2,6,6,0,0,1-3.11.77,7.13,7.13,0,0,1-2.39-.38,4.79,4.79,0,0,1-1.73-1,6,6,0,0,1-1.23-1.86h1.45a3.82,3.82,0,0,0,1.52,1.52,4.9,4.9,0,0,0,2.32.5,4.79,4.79,0,0,0,2.3-.51,3.12,3.12,0,0,0,1.34-1.28,5.68,5.68,0,0,0,.4-2.48v-.53a5,5,0,0,1-1.84,1.46,5.46,5.46,0,0,1-5-.2,5,5,0,0,1-1.94-1.91,5.21,5.21,0,0,1-.69-2.64,5.39,5.39,0,0,1,5.35-5.37,5,5,0,0,1,2.17.48A6,6,0,0,1,491.7,373Zm-3.93,1a4.21,4.21,0,0,0-2.1.55,4,4,0,0,0-1.52,1.51,4.14,4.14,0,0,0-.55,2.09,3.77,3.77,0,0,0,1.14,2.82,4.5,4.5,0,0,0,5.92,0,3.9,3.9,0,0,0,1.12-2.9,4.2,4.2,0,0,0-.51-2.09,3.75,3.75,0,0,0-1.46-1.45A4.06,4.06,0,0,0,487.77,372.21Z" transform="translate(-88.09 -300.06)">
    </path>
</svg>
