<svg xmlns="http://www.w3.org/2000/svg" width="353.895" height="52.049" viewBox="0 0 353.895 52.049">
  <g id="Group_132" data-name="Group 132" transform="translate(-103.312 -69.298)" fill="#ffffff">
    <path id="Path_1" data-name="Path 1" d="M106.223,91.057a10.573,10.573,0,0,1,3.1-3.859,13.3,13.3,0,0,1,4.619-2.212,22.313,22.313,0,0,1,5.864-.721,25.758,25.758,0,0,1,4.861.466,11.706,11.706,0,0,1,4.367,1.756,9.565,9.565,0,0,1,3.146,3.608,13.1,13.1,0,0,1,1.211,6.043v19.6q0,2.722,2.65,2.723a3.473,3.473,0,0,0,1.433-.291v3.8q-.8.139-1.4.21a13.3,13.3,0,0,1-1.54.074,6.7,6.7,0,0,1-2.736-.466,3.736,3.736,0,0,1-1.587-1.323,4.94,4.94,0,0,1-.744-2.04,17.886,17.886,0,0,1-.176-2.614h-.142A31.183,31.183,0,0,1,126.685,119a12.3,12.3,0,0,1-2.8,2.319,12.592,12.592,0,0,1-3.5,1.43,19.236,19.236,0,0,1-4.693.5,18.326,18.326,0,0,1-4.827-.613,11.011,11.011,0,0,1-3.942-1.925,9.3,9.3,0,0,1-2.649-3.362,11.245,11.245,0,0,1-.962-4.835,9.559,9.559,0,0,1,1.716-6.045,10.83,10.83,0,0,1,4.541-3.319,25.586,25.586,0,0,1,6.36-1.608q3.54-.47,7.191-.9c.95-.091,1.785-.215,2.5-.356a4.261,4.261,0,0,0,1.788-.751,3.5,3.5,0,0,0,1.105-1.468,6.325,6.325,0,0,0,.4-2.436,8.28,8.28,0,0,0-.751-3.749,5.912,5.912,0,0,0-2.082-2.325A8.46,8.46,0,0,0,123,88.38a20.973,20.973,0,0,0-3.765-.322,11.446,11.446,0,0,0-7.026,2.037q-2.716,2.047-2.865,6.54h-4.48a14.862,14.862,0,0,1,1.36-5.578m22.544,11.025a2.61,2.61,0,0,1-1.648,1.144,15.108,15.108,0,0,1-2.142.492c-1.913.344-3.882.64-5.905.9a32.66,32.66,0,0,0-5.55,1.182,10.906,10.906,0,0,0-4.116,2.25,5.4,5.4,0,0,0-1.608,4.189,6.5,6.5,0,0,0,.677,3.04,7.4,7.4,0,0,0,1.826,2.285,7.827,7.827,0,0,0,2.651,1.47,9.763,9.763,0,0,0,3.078.5,15.386,15.386,0,0,0,4.936-.788,12.147,12.147,0,0,0,4.115-2.287,10.885,10.885,0,0,0,3.829-8.521v-5.853Z" transform="translate(0 -1.901)"/>
    <path id="Path_2" data-name="Path 2" d="M173.5,122.4l-.031-6.651h-.123a12.827,12.827,0,0,1-5.181,5.682,14.851,14.851,0,0,1-7.55,1.97,16.24,16.24,0,0,1-5.973-.975,9.9,9.9,0,0,1-4-2.741,11.158,11.158,0,0,1-2.257-4.361,22.245,22.245,0,0,1-.712-5.868V85.5h4.48V109.53q.147,5.013,2.323,7.585t7.558,2.574a9.521,9.521,0,0,0,5-1.248,10.685,10.685,0,0,0,3.434-3.328,15.1,15.1,0,0,0,2-4.761,23.38,23.38,0,0,0,.643-5.462V85.5h4.484V122.4Z" transform="translate(-5.633 -2.057)"/>
    <path id="Path_3" data-name="Path 3" d="M205.452,83.88v3.792h-7.5v24.913a8.19,8.19,0,0,0,.6,3.47c.409.839,1.418,1.305,3.041,1.4a31.592,31.592,0,0,0,3.857-.24V121q-1,0-2,.084c-.668.058-1.34.076-2,.076q-4.507,0-6.3-1.749t-1.714-6.477l.027-25.266h-6.441V83.88h6.441V72.76h4.484V83.88Z" transform="translate(-10.632 -0.44)"/>
    <path id="Path_4" data-name="Path 4" d="M219.618,69.3V89.814h.154a10.853,10.853,0,0,1,4.573-5.407,13.463,13.463,0,0,1,7.215-2.042,18.15,18.15,0,0,1,6.466,1A10.055,10.055,0,0,1,242.2,86.2a10.417,10.417,0,0,1,2.217,4.461,25.291,25.291,0,0,1,.647,5.937v23.747h-4.488V97.311a21.437,21.437,0,0,0-.43-4.4,9.3,9.3,0,0,0-1.5-3.536,7.457,7.457,0,0,0-2.9-2.371,10.756,10.756,0,0,0-4.544-.85,11.468,11.468,0,0,0-4.828.97,10.415,10.415,0,0,0-3.576,2.638,12.328,12.328,0,0,0-2.289,4.013,16.31,16.31,0,0,0-.9,5.036v21.53h-4.485V69.3Z" transform="translate(-14.201)"/>
    <path id="Path_5" data-name="Path 5" d="M260.242,110.049a13.732,13.732,0,0,0,2.173,4.677,12.205,12.205,0,0,0,3.795,3.441,10.566,10.566,0,0,0,5.5,1.365q4.934,0,7.723-2.572a13.6,13.6,0,0,0,3.867-6.868h4.48a18.014,18.014,0,0,1-5.249,9.726q-3.825,3.427-10.821,3.43a17.066,17.066,0,0,1-7.531-1.547A13.805,13.805,0,0,1,259,117.487a18.183,18.183,0,0,1-2.963-6.219,28.108,28.108,0,0,1-.963-7.471,26.728,26.728,0,0,1,.963-7.162A19.167,19.167,0,0,1,259,90.381a14.917,14.917,0,0,1,5.18-4.431,15.968,15.968,0,0,1,7.538-1.684A14.6,14.6,0,0,1,284.4,90.734a19.553,19.553,0,0,1,2.822,6.652,29.454,29.454,0,0,1,.714,7.606H259.558a19.944,19.944,0,0,0,.684,5.057m22.32-13.786a13.673,13.673,0,0,0-2.327-4.174,11.489,11.489,0,0,0-3.65-2.924,10.4,10.4,0,0,0-4.863-1.109,10.556,10.556,0,0,0-4.936,1.109,11.583,11.583,0,0,0-3.654,2.924,14.535,14.535,0,0,0-2.39,4.218,20.311,20.311,0,0,0-1.183,4.893h23.9a16.6,16.6,0,0,0-.9-4.938" transform="translate(-19.273 -1.901)"/>
    <path id="Path_6" data-name="Path 6" d="M303.736,85.337v6.376h.157a10.717,10.717,0,0,1,4.568-5.406,13.454,13.454,0,0,1,7.215-2.041,18.124,18.124,0,0,1,6.462,1,10.1,10.1,0,0,1,4.183,2.829,10.5,10.5,0,0,1,2.212,4.461,25.292,25.292,0,0,1,.647,5.937v23.747H324.7V99.212a21.265,21.265,0,0,0-.432-4.4,9.468,9.468,0,0,0-1.5-3.535,7.5,7.5,0,0,0-2.9-2.371,10.731,10.731,0,0,0-4.54-.85,11.448,11.448,0,0,0-4.826.97,10.394,10.394,0,0,0-3.577,2.638,12.118,12.118,0,0,0-2.284,4.013,15.987,15.987,0,0,0-.9,5.035v21.531H299.25V85.337Z" transform="translate(-24.883 -1.901)"/>
    <path id="Path_7" data-name="Path 7" d="M370.762,84.629v3.088H356.188v34.575h-3.946V87.717H337.716V84.629Z" transform="translate(-29.768 -1.947)"/>
    <path id="Path_8" data-name="Path 8" d="M370.762,84.629v3.088H356.188v34.575h-3.946V87.717H337.716V84.629Z" transform="translate(-29.768 -1.947)"/>
    <path id="Path_9" data-name="Path 9" d="M411.3,84.629v3.088H386.426v13.532h23.3v3.1h-23.3v14.848H411.6v3.1H382.481V84.629Z" transform="translate(-35.453 -1.947)"/>
    <path id="Path_10" data-name="Path 10" d="M440.519,84.627l16.393,37.663h-4.275l-5.1-11.68H428.519l-5.037,11.68h-4.214l16.8-37.663Zm5.678,22.885-8.078-19.3-8.372,19.3Z" transform="translate(-40.125 -1.947)"/>
    <path id="Path_11" data-name="Path 11" d="M440.519,84.627l16.393,37.663h-4.275l-5.1-11.68H428.519l-5.037,11.68h-4.214l16.8-37.663Zm5.678,22.885-8.078-19.3-8.372,19.3Z" transform="translate(-40.125 -1.947)"/>
    <path id="Path_12" data-name="Path 12" d="M473.1,84.629v20.248l24.3-20.248h5.386l-18.676,15.553,19.556,22.11h-5.157l-17.387-19.626-8.022,6.695v12.931h-3.941V84.629Z" transform="translate(-46.461 -1.947)"/>
    <path id="Path_13" data-name="Path 13" d="M473.1,84.629v20.248l24.3-20.248h5.386l-18.676,15.553,19.556,22.11h-5.157l-17.387-19.626-8.022,6.695v12.931h-3.941V84.629Z" transform="translate(-46.461 -1.947)"/>
  </g>
</svg>
